<svg width="31" height="30" viewBox="0 0 31 30" fill="none" xmlns="http://www.w3.org/2000/svg">
<g clip-path="url(#clip0_3370_10240)">
<path d="M17.0232 3V15.38C17.0232 15.38 7.77319 21.63 5.77319 21.63C2.52319 21.63 2.52319 26.01 5.77319 26.01H24.0232C26.6432 26.01 27.9032 22.26 26.6432 20.39C25.3832 18.52 25.5232 15.39 25.5232 12.27V3" fill="#D7E0FF"/>
<path d="M24.0233 27H5.77325C3.51325 27 2.33325 25.4 2.33325 23.81C2.33325 22.97 2.65325 22.19 3.23325 21.6C3.67325 21.15 4.47325 20.62 5.77325 20.62C6.80325 20.61 11.7933 17.66 16.0233 14.84V3H18.0233V15.91L17.5833 16.21C15.3533 17.72 7.91325 22.63 5.77325 22.63C4.71325 22.63 4.33325 23.27 4.33325 23.82C4.33325 24.37 4.71325 25.01 5.77325 25.01H24.0233C24.9433 25.01 25.4833 24.26 25.7233 23.82C26.2333 22.86 26.2733 21.62 25.8133 20.94C24.5033 18.97 24.5133 16.09 24.5233 13.04V3H26.5233V13.04C26.5133 15.78 26.5033 18.36 27.4833 19.82C28.3633 21.14 28.3633 23.12 27.4833 24.75C26.7233 26.18 25.4533 27 24.0233 27Z" fill="#1565FF"/>
</g>
<defs>
<clipPath id="clip0_3370_10240">
<rect width="25.8" height="24" fill="white" transform="translate(2.33325 3)"/>
</clipPath>
</defs>
</svg>
