
<svg xmlns="http://www.w3.org/2000/svg" width="89" height="35" viewBox="0 0 89 35">
  <path d="M4,2L79,2C84.523,2 89,6.477 89,12L89,33L24,33C12.954,33 4,24.046 4,13L4,2Z" fill="#EAEFFE" />
<path d="M62.8,15.65a6.75,5.85 0,1 0,13.5 0a6.75,5.85 0,1 0,-13.5 0z" fill="#ffffff" />
<path d="M70,8C65.038,8 61,12.038 61,17C61,21.962 65.038,26 70,26C74.962,26 79,21.962 79,17C79,12.038 74.962,8 70,8ZM75.03,14.632L69.278,20.338C68.94,20.677 68.398,20.699 68.038,20.361L64.993,17.587C64.632,17.248 64.609,16.684 64.925,16.323C65.263,15.962 65.827,15.94 66.188,16.278L68.602,18.489L73.744,13.346C74.105,12.985 74.669,12.985 75.03,13.346C75.391,13.707 75.391,14.271 75.03,14.632Z" fill="#5271FF" />
<path d="M21.163,22V16.54C21.163,16.176 21.08,15.919 20.912,15.77C20.753,15.611 20.524,15.532 20.226,15.532H17.622V14.006H20.771C21.238,14.006 21.653,14.095 22.017,14.272C22.382,14.449 22.666,14.729 22.872,15.112C23.086,15.495 23.194,16.003 23.194,16.638V20.698V22H21.163ZM16.767,22V20.488H22.465L22.424,22H16.767ZM16.333,22V15.238V14.006H18.364V15.35V22H16.333ZM25.865,22L28.385,15.532H24.325V14.006H30.415V15.672L27.895,22H25.865ZM24.325,15.532V11.962H26.145V15.532H24.325ZM32.473,22.14L31.423,14.006H33.341L34.111,20.474C34.811,20.427 35.399,20.301 35.875,20.096C36.351,19.881 36.729,19.601 37.009,19.256C37.299,18.911 37.504,18.5 37.625,18.024C37.747,17.548 37.807,17.025 37.807,16.456L37.779,14.006H39.809L39.823,16.358C39.833,17.646 39.581,18.729 39.067,19.606C38.554,20.474 37.756,21.123 36.673,21.552C35.591,21.981 34.191,22.177 32.473,22.14ZM33.635,18.948L33.159,17.688C33.589,17.576 33.911,17.417 34.125,17.212C34.349,16.997 34.499,16.708 34.573,16.344C34.648,15.98 34.685,15.513 34.685,14.944V14.02H36.603V14.902C36.594,15.565 36.501,16.162 36.323,16.694C36.155,17.217 35.857,17.665 35.427,18.038C35.007,18.411 34.41,18.715 33.635,18.948ZM41.192,22V15.644L41.038,14.006H43.054L43.222,15.644V22H41.192ZM49.323,22V16.54C49.323,16.176 49.239,15.919 49.071,15.77C48.912,15.611 48.683,15.532 48.385,15.532H44.731V14.006H48.931C49.397,14.006 49.813,14.095 50.177,14.272C50.541,14.449 50.825,14.729 51.031,15.112C51.245,15.495 51.353,16.003 51.353,16.638V22H49.323ZM44.647,22V18.178L44.927,17.24H46.677V18.178V22H44.647Z" fill="#5271FF" />

</svg>
  