<svg width="30" height="31" viewBox="0 0 30 31" fill="white" xmlns="http://www.w3.org/2000/svg">
    <g clip-path="url(#clip0_16211_2647)">
      <path fill-rule="nonzero" clip-rule="evenodd" d="M21.2796 6.51176C22.5704 7.98215 23.353 9.90972 23.353 12.0201V42.189C23.353 46.8023 19.6132 50.5421 15 50.5421C10.3868 50.5421 6.64697 46.8023 6.64697 42.189V12.0201C6.64697 9.90972 7.42958 7.98215 8.72041 6.51176C9.46247 3.73852 11.9927 1.69629 15 1.69629C18.0073 1.69629 20.5375 3.73852 21.2796 6.51176Z" fill="#D7E0FF"/>
      <path d="M9.68455 5.49316C7.74016 7.43816 6.64697 10.0758 6.64697 12.8261V34.5421M23.353 34.5421V12.8261C23.353 10.0758 22.2605 7.43816 20.3161 5.49347" stroke="#1565FF" stroke-width="2" stroke-linejoin="round" fill="#D7E0FF"/>
      <path d="M20 5.19629C20 3.26309 18.4012 1.69629 16.4286 1.69629H13.5714C11.599 1.69629 10 3.26337 10 5.19629V10.7962C10 12.0959 10.5269 13.342 11.4647 14.2611C12.4023 15.1802 13.6741 15.6963 15 15.6963C17.7616 15.6963 20 13.5024 20 10.7962V5.19629Z" stroke="#1565FF" stroke-width="2" stroke-linejoin="round" fill="#D7E0FF"/>
    </g>
    <defs>
      <clipPath id="clip0_16211_2647">
        <rect width="30" height="30" fill="white" transform="translate(0 0.166992)"/>
      </clipPath>
    </defs>
  </svg>
  