<svg width="29" height="29" viewBox="0 0 29 29" fill="none" xmlns="http://www.w3.org/2000/svg">
<path d="M14.2701 27.037C21.4101 27.037 27.2001 21.247 27.2001 14.107C27.2001 6.96699 21.4201 1.16699 14.2701 1.16699C7.12009 1.16699 1.34009 6.95699 1.34009 14.097C1.34009 21.237 7.13009 27.027 14.2701 27.027V27.037Z" fill="#D7E0FF"/>
<path d="M14.2701 28.037C6.59009 28.037 0.340088 21.787 0.340088 14.097C0.340088 6.40699 6.59009 0.166992 14.2701 0.166992C21.9501 0.166992 28.2001 6.41699 28.2001 14.097C28.2001 21.777 21.9501 28.027 14.2701 28.027V28.037ZM14.2701 2.16699C7.69009 2.16699 2.34009 7.51699 2.34009 14.097C2.34009 20.677 7.69009 26.027 14.2701 26.027C20.8501 26.027 26.2001 20.677 26.2001 14.097C26.2001 7.51699 20.8501 2.16699 14.2701 2.16699Z" fill="#1565FF"/>
<path d="M14.28 17.417C13.73 17.417 13.28 16.967 13.28 16.417V14.097C13.28 13.547 13.73 13.097 14.28 13.097C14.77 13.097 15.25 12.947 15.66 12.677C16.07 12.407 16.39 12.017 16.57 11.567C16.76 11.107 16.81 10.617 16.71 10.137C16.61 9.65699 16.38 9.21698 16.03 8.86699C15.68 8.51699 15.24 8.28699 14.76 8.18699C14.28 8.08699 13.78 8.13699 13.32 8.32699C12.86 8.51699 12.48 8.82698 12.2 9.23698C11.93 9.64699 11.78 10.127 11.78 10.617C11.78 11.167 11.33 11.617 10.78 11.617C10.23 11.617 9.78003 11.167 9.78003 10.617C9.78003 9.72699 10.04 8.86699 10.54 8.12699C11.04 7.38699 11.73 6.81699 12.55 6.47699C13.37 6.13699 14.27 6.04699 15.14 6.22699C16.01 6.39699 16.81 6.82699 17.44 7.45699C18.07 8.08699 18.49 8.87699 18.67 9.75699C18.84 10.627 18.76 11.527 18.42 12.347C18.08 13.167 17.51 13.867 16.77 14.357C16.31 14.667 15.81 14.877 15.28 14.997V16.427C15.28 16.977 14.83 17.427 14.28 17.427V17.417Z" fill="#1565FF"/>
<path d="M14.2703 18.9873C13.4403 18.9873 12.7703 19.6573 12.7703 20.4873C12.7703 21.3173 13.4403 21.9873 14.2703 21.9873C15.1003 21.9873 15.7703 21.3173 15.7703 20.4873C15.7703 19.6573 15.1003 18.9873 14.2703 18.9873Z" fill="#1565FF"/>
</svg>
