<svg width="30" height="30" viewBox="0 0 30 30" fill="none" xmlns="http://www.w3.org/2000/svg">
<path d="M14.93 27.87C22.07 27.87 27.86 22.08 27.86 14.94C27.86 7.8 22.08 2 14.93 2C7.78 2 2 7.79 2 14.93C2 22.07 7.79 27.86 14.93 27.86V27.87Z" fill="#D7E0FF"/>
<path d="M14.93 28.87C7.25 28.87 1 22.62 1 14.93C1 7.24 7.25 1 14.93 1C22.61 1 28.86 7.25 28.86 14.93C28.86 22.61 22.61 28.86 14.93 28.86V28.87ZM14.93 3C8.35 3 3 8.35 3 14.93C3 21.51 8.35 26.86 14.93 26.86C21.51 26.86 26.86 21.51 26.86 14.93C26.86 8.35 21.51 3 14.93 3Z" fill="#1565FF"/>
<path d="M14.9399 18.25C14.3899 18.25 13.9399 17.8 13.9399 17.25V14.93C13.9399 14.38 14.3899 13.93 14.9399 13.93C15.4299 13.93 15.9099 13.78 16.3199 13.51C16.7299 13.24 17.0499 12.85 17.2299 12.4C17.4199 11.94 17.4699 11.45 17.3699 10.97C17.2699 10.49 17.0399 10.05 16.6899 9.69999C16.3399 9.34999 15.8999 9.11999 15.4199 9.01999C14.9399 8.91999 14.4399 8.96999 13.9799 9.15999C13.5199 9.34999 13.1399 9.65999 12.8599 10.07C12.5899 10.48 12.4399 10.96 12.4399 11.45C12.4399 12 11.9899 12.45 11.4399 12.45C10.8899 12.45 10.4399 12 10.4399 11.45C10.4399 10.56 10.6999 9.69999 11.1999 8.95999C11.6999 8.21999 12.3899 7.64999 13.2099 7.30999C14.0299 6.96999 14.9299 6.87999 15.7999 7.05999C16.6699 7.22999 17.4699 7.65999 18.0999 8.28999C18.7299 8.91999 19.1499 9.70999 19.3299 10.59C19.4999 11.46 19.4199 12.36 19.0799 13.18C18.7399 14 18.1699 14.7 17.4299 15.19C16.9699 15.5 16.4699 15.71 15.9399 15.83V17.26C15.9399 17.81 15.4899 18.26 14.9399 18.26V18.25Z" fill="#1565FF"/>
<path d="M14.9302 19.8201C14.1002 19.8201 13.4302 20.4901 13.4302 21.3201C13.4302 22.1501 14.1002 22.8201 14.9302 22.8201C15.7602 22.8201 16.4302 22.1501 16.4302 21.3201C16.4302 20.4901 15.7602 19.8201 14.9302 19.8201Z" fill="#1565FF"/>
</svg>
