<svg width="30" height="30" viewBox="0 0 30 30" fill="none" xmlns="http://www.w3.org/2000/svg">
<path d="M4.53174 23.2402C4.53174 17.7202 9.01174 13.2402 14.5317 13.2402H15.5417C21.0617 13.2402 25.5417 17.7202 25.5417 23.2402V28.8102H9.53174C6.77174 28.8102 4.53174 26.5702 4.53174 23.8102V23.2402Z" fill="#D7E0FF"/>
<path d="M15.01 13.1704C18.32 13.1704 21 10.4904 21 7.18043C21 3.87043 18.32 1.19043 15.01 1.19043C11.7 1.19043 9.02002 3.87043 9.02002 7.18043C9.02002 10.4904 11.7 13.1704 15.01 13.1704Z" fill="#D7E0FF"/>
<path fill-rule="evenodd" clip-rule="evenodd" d="M15.0012 14.1704L15.01 14.1704L15.0189 14.1704C17.5555 14.1727 19.9321 15.1625 21.72 16.9504C23.51 18.7504 24.5 21.1304 24.5 23.6604V28.8104C24.5 29.3571 24.9446 29.805 25.49 29.8104L25.48 29.8104H25.5L25.49 29.8104C26.0355 29.805 26.48 29.3571 26.48 28.8104V23.6604C26.48 20.5904 25.29 17.7104 23.12 15.5404C21.9369 14.3573 20.5428 13.4656 19.0219 12.8991C20.8209 11.6323 22 9.53964 22 7.18043C22 3.33043 18.86 0.19043 15.01 0.19043C11.16 0.19043 8.02002 3.33043 8.02002 7.18043C8.02002 9.53728 9.19299 11.6281 10.9883 12.8953C9.46348 13.4616 8.06575 14.3547 6.88002 15.5404C4.71002 17.7104 3.52002 20.5904 3.52002 23.6604C3.52002 27.0504 6.28002 29.8104 9.67002 29.8104H16.95H16.98C19.18 29.7804 20.96 28.0004 20.96 25.7704C20.96 23.5404 19.15 21.7304 16.92 21.7304H16.1453L14.9946 14.1704L15.0012 14.1704ZM9.43018 15.9821C9.03252 16.2725 8.65469 16.5957 8.30002 16.9504C6.51002 18.7404 5.52002 21.1204 5.52002 23.6604C5.52002 25.8699 7.25155 27.6791 9.43018 27.8036V23.7205H8.79346C8.24346 23.7205 7.79346 23.2705 7.79346 22.7205C7.79346 22.1705 8.24346 21.7205 8.79346 21.7205H9.43018V15.9821ZM17.07 27.805C18.1294 27.7279 18.96 26.8404 18.96 25.7704C18.96 24.6504 18.04 23.7304 16.92 23.7304H16.4498L17.07 27.805ZM11.4052 3.73451C10.663 4.51063 10.1678 5.52494 10.0481 6.64918L13.6534 5.40565L11.4052 3.73451ZM13.1618 2.54565C13.7337 2.31654 14.3575 2.19043 15.01 2.19043C16.4103 2.19043 17.6783 2.7712 18.5857 3.70435L15.9456 4.615L13.1618 2.54565ZM20 7.18043C20 6.56832 19.889 5.98148 19.6862 5.43899L10.2544 8.69224C10.8968 10.7063 12.7867 12.1704 15.01 12.1704C17.76 12.1704 20 9.93043 20 7.18043ZM15.0502 27.8104H11.4302V14.8804C11.9402 14.6704 12.4702 14.5104 13.0102 14.3904L15.0502 27.8104Z" fill="#1565FF"/>
</svg>
