<svg width="120" height="121" viewBox="0 0 120 121" fill="none" xmlns="http://www.w3.org/2000/svg">
<rect y="0.5" width="120" height="120" rx="60" fill="#D7E0FF"/>
<path fill-rule="evenodd" clip-rule="evenodd" d="M35.7845 36.0422C35.642 36.1719 35.5061 36.3086 35.3772 36.4517C34.9688 36.905 34.6448 37.4073 34.4052 37.9385C34.0775 38.6635 33.8951 39.4682 33.8951 40.3156V57.9753C33.8951 61.1661 36.4818 63.7528 39.6726 63.7528C42.8633 63.7528 45.45 61.1661 45.45 57.9753V54.2633L75.9525 84.7658C78.2087 87.022 81.8668 87.022 84.123 84.7658C86.3792 82.5096 86.3792 78.8515 84.123 76.5953L53.6208 46.093H57.3323C60.5231 46.093 63.1097 43.5064 63.1097 40.3156C63.1097 37.1248 60.5231 34.5381 57.3323 34.5381H39.6992C39.6165 34.5378 39.5337 34.5392 39.451 34.5423C38.0408 34.5955 36.76 35.1541 35.7845 36.0422Z" fill="#F9FAFC"/>
<path d="M35.7845 36.0422L34.488 34.6181V34.6181L35.7845 36.0422ZM35.3772 36.4517L36.8086 37.7401L36.8079 37.7408L35.3772 36.4517ZM34.4052 37.9385L36.1607 38.7303L36.1601 38.7317L34.4052 37.9385ZM45.45 54.2633H43.5242C43.5242 53.4844 43.9934 52.7822 44.713 52.4841C45.4326 52.186 46.261 52.3508 46.8117 52.9015L45.45 54.2633ZM75.9525 84.7658L74.5907 86.1275H74.5907L75.9525 84.7658ZM84.123 84.7658L85.4848 86.1275H85.4848L84.123 84.7658ZM84.123 76.5953L85.4848 75.2335H85.4848L84.123 76.5953ZM53.6208 46.093L52.259 47.4548C51.7082 46.904 51.5435 46.0757 51.8415 45.356C52.1396 44.6364 52.8418 44.1672 53.6208 44.1672V46.093ZM39.6992 34.5381V36.464L39.6905 36.4639L39.6992 34.5381ZM39.451 34.5423L39.5245 36.4667L39.5236 36.4668L39.451 34.5423ZM37.0809 37.4663C36.9856 37.553 36.8947 37.6444 36.8086 37.7401L33.9459 35.1633C34.1174 34.9727 34.2984 34.7907 34.488 34.6181L37.0809 37.4663ZM36.8079 37.7408C36.5348 38.044 36.3196 38.3781 36.1607 38.7303L32.6498 37.1467C32.97 36.4366 33.4028 35.766 33.9465 35.1626L36.8079 37.7408ZM36.1601 38.7317C35.9428 39.2124 35.8209 39.7471 35.8209 40.3156H31.9693C31.9693 39.1893 32.2122 38.1146 32.6504 37.1453L36.1601 38.7317ZM35.8209 40.3156V57.9753H31.9693V40.3156H35.8209ZM35.8209 57.9753C35.8209 60.1025 37.5454 61.827 39.6726 61.827V65.6786C35.4182 65.6786 31.9693 62.2297 31.9693 57.9753H35.8209ZM39.6726 61.827C41.7998 61.827 43.5242 60.1025 43.5242 57.9753H47.3758C47.3758 62.2297 43.9269 65.6786 39.6726 65.6786V61.827ZM43.5242 57.9753V54.2633H47.3758V57.9753H43.5242ZM46.8117 52.9015L77.3142 83.404L74.5907 86.1275L44.0882 55.6251L46.8117 52.9015ZM77.3142 83.404C78.8184 84.9082 81.2571 84.9082 82.7613 83.404L85.4848 86.1275C82.4765 89.1358 77.599 89.1358 74.5907 86.1275L77.3142 83.404ZM82.7613 83.404C84.2654 81.8999 84.2654 79.4612 82.7613 77.957L85.4848 75.2335C88.4931 78.2418 88.4931 83.1192 85.4848 86.1275L82.7613 83.404ZM82.7613 77.957L52.259 47.4548L54.9825 44.7313L85.4848 75.2335L82.7613 77.957ZM53.6208 44.1672H57.3323V48.0188H53.6208V44.1672ZM57.3323 44.1672C59.4595 44.1672 61.1839 42.4428 61.1839 40.3156H65.0355C65.0355 44.57 61.5867 48.0188 57.3323 48.0188V44.1672ZM61.1839 40.3156C61.1839 38.1884 59.4595 36.464 57.3323 36.464V32.6123C61.5867 32.6123 65.0355 36.0612 65.0355 40.3156H61.1839ZM57.3323 36.464H39.6992V32.6123H57.3323V36.464ZM39.6905 36.4639C39.6351 36.4637 39.5798 36.4646 39.5245 36.4667L39.3776 32.6179C39.4877 32.6137 39.5978 32.6119 39.708 32.6124L39.6905 36.4639ZM39.5236 36.4668C38.5844 36.5022 37.7329 36.8727 37.0809 37.4663L34.488 34.6181C35.7871 33.4355 37.4973 32.6888 39.3785 32.6179L39.5236 36.4668Z" fill="#1565FF"/>
</svg>
