<svg width="16" height="17" viewBox="0 0 16 17" fill="none" xmlns="http://www.w3.org/2000/svg">
<g clip-path="url(#clip0_15474_1948)">
<path d="M13.2133 14.5546C13.2133 14.9115 13.0924 15.2537 12.8773 15.506C12.6621 15.7583 12.3703 15.9001 12.0661 15.9001H1.74098C1.43672 15.9001 1.14491 15.7583 0.929767 15.506C0.714619 15.2537 0.59375 14.9115 0.59375 14.5546V2.44555C0.59375 2.08872 0.714619 1.74649 0.929767 1.49417C1.14491 1.24185 1.43672 1.1001 1.74098 1.1001H12.0661C12.3703 1.1001 12.6621 1.24185 12.8773 1.49417C13.0924 1.74649 13.2133 2.08872 13.2133 2.44555" stroke="#1565FF" stroke-width="1.1" stroke-linecap="round" stroke-linejoin="round"/>
<path d="M6.71631 8.5H15.4052" stroke="#1565FF" stroke-width="1.1" stroke-linecap="round" stroke-linejoin="round"/>
<path d="M13.0884 5.80908L15.4054 8.49999L13.0884 11.1909" stroke="#1565FF" stroke-width="1.1" stroke-linecap="round" stroke-linejoin="round"/>
</g>
<defs>
<clipPath id="clip0_15474_1948">
<rect width="16" height="16" fill="white" transform="translate(0 0.5)"/>
</clipPath>
</defs>
</svg>
