<svg width="30" height="30" viewBox="0 0 30 30" fill="none" xmlns="http://www.w3.org/2000/svg">
<g clip-path="url(#clip0_3345_9140)">
<path d="M15.01 10.01C17.22 10.01 19.02 8.22 19.02 6C19.02 3.78 17.22 2 15.01 2C12.8 2 11 3.79 11 6.01C11 8.23 12.79 10.02 15.01 10.02V10.01Z" fill="#D7E0FF"/>
<path d="M22.02 17.02C22.02 15.16 21.28 13.38 19.97 12.06C18.66 10.75 16.87 10.01 15.01 10.01C13.15 10.01 11.37 10.75 10.05 12.06C8.74 13.37 8 15.16 8 17.02V20.02H11L12 28.03H18.01L19.01 20.02H22.01V17.02H22.02Z" fill="#D7E0FF"/>
<path d="M15.01 11.01C12.25 11.01 10.01 8.76 10.01 6C10.01 3.24 12.25 1 15.01 1C17.77 1 20.01 3.25 20.01 6C20.01 8.75 17.76 11.01 15.01 11.01ZM15.01 3C13.35 3 12.01 4.35 12.01 6C12.01 7.65 13.36 9.01 15.01 9.01C16.66 9.01 18.01 7.66 18.01 6C18.01 4.34 16.66 3 15.01 3Z" fill="#1565FF"/>
<path d="M18.01 29.03H12C11.5 29.03 11.07 28.65 11.01 28.15L10.12 21.02H8C7.45 21.02 7 20.57 7 20.02V17.02C7 14.88 7.83 12.87 9.35 11.36C10.87 9.85001 12.87 9.01001 15.01 9.01001C17.15 9.01001 19.16 9.84001 20.67 11.36C22.18 12.88 23.02 14.88 23.02 17.02V20.02C23.02 20.57 22.57 21.02 22.02 21.02H19.9L19.01 28.15C18.95 28.65 18.52 29.03 18.02 29.03H18.01ZM12.89 27.03H17.13L18.02 19.9C18.08 19.4 18.51 19.02 19.01 19.02H21.01V17.02C21.01 15.41 20.39 13.91 19.25 12.77C18.11 11.63 16.61 11.01 15 11.01C13.39 11.01 11.89 11.63 10.75 12.77C9.61 13.91 8.99 15.41 8.99 17.02V19.02H10.99C11.49 19.02 11.92 19.4 11.98 19.9L12.87 27.03H12.89Z" fill="#1565FF"/>
</g>
<defs>
<clipPath id="clip0_3345_9140">
<rect width="16.02" height="28.03" fill="white" transform="translate(7 1)"/>
</clipPath>
</defs>
</svg>
