<svg width="30" height="30" viewBox="0 0 30 30" fill="none" xmlns="http://www.w3.org/2000/svg">
<path fill-rule="evenodd" clip-rule="evenodd" d="M18.4186 10.8918C17.3855 10.3192 16.2124 10.01 15.01 10.01V10.01C17.22 10.01 19.02 8.22 19.02 6C19.02 3.78 17.22 2 15.01 2C12.8 2 11 3.79 11 6.01C11 8.15364 12.669 9.89635 14.7825 10.0137C13.0054 10.0714 11.3161 10.8035 10.05 12.06C8.74 13.37 8 15.16 8 17.02V20.02H11L11.8806 27.0739L18.4186 10.8918Z" fill="#D7E0FF"/>
<path fill-rule="evenodd" clip-rule="evenodd" d="M19.7328 7.63901C19.9123 7.12461 20.01 6.57294 20.01 6C20.01 3.25 17.77 1 15.01 1C12.25 1 10.01 3.24 10.01 6C10.01 7.48198 10.6558 8.81691 11.6812 9.73544C10.8266 10.1287 10.039 10.6755 9.35 11.36C7.83 12.87 7 14.88 7 17.02V20.02C7 20.57 7.45 21.02 8 21.02H10.12L11.01 28.15C11.0337 28.3475 11.1151 28.5262 11.2357 28.6702L12.6407 25.1928L11.98 19.9C11.92 19.4 11.49 19.02 10.99 19.02H8.99V17.02C8.99 15.41 9.61 13.91 10.75 12.77C11.89 11.63 13.39 11.01 15 11.01C16.0893 11.01 17.1282 11.2938 18.0394 11.8305L18.7962 9.95729C18.6458 9.87621 18.493 9.80014 18.338 9.72915C18.8472 9.27197 19.2632 8.71251 19.5529 8.0843L19.7328 7.63901ZM15.01 3C13.35 3 12.01 4.35 12.01 6C12.01 7.65 13.36 9.01 15.01 9.01C16.66 9.01 18.01 7.66 18.01 6C18.01 4.34 16.66 3 15.01 3Z" fill="#1565FF"/>
</svg>
