<svg width="31" height="31" viewBox="0 0 31 31" fill="none" xmlns="http://www.w3.org/2000/svg">
<g clip-path="url(#clip0_16211_3122)">
<path d="M15.6767 10.177C17.8867 10.177 19.6867 8.38699 19.6867 6.16699C19.6867 3.94699 17.8867 2.16699 15.6767 2.16699C13.4667 2.16699 11.6667 3.95699 11.6667 6.17699C11.6667 8.39699 13.4567 10.187 15.6767 10.187V10.177Z" fill="#D7E0FF"/>
<path d="M22.6867 17.1868C22.6867 15.3268 21.9467 13.5468 20.6367 12.2268C19.3267 10.9168 17.5367 10.1768 15.6767 10.1768C13.8167 10.1768 12.0367 10.9168 10.7167 12.2268C9.40675 13.5368 8.66675 15.3268 8.66675 17.1868V20.1868H11.6667L12.6667 28.1968H18.6767L19.6767 20.1868H22.6767V17.1868H22.6867Z" fill="#D7E0FF"/>
<path d="M15.6768 11.177C12.9168 11.177 10.6768 8.92699 10.6768 6.16699C10.6768 3.40699 12.9168 1.16699 15.6768 1.16699C18.4368 1.16699 20.6768 3.41699 20.6768 6.16699C20.6768 8.91699 18.4268 11.177 15.6768 11.177ZM15.6768 3.16699C14.0168 3.16699 12.6768 4.51699 12.6768 6.16699C12.6768 7.81699 14.0268 9.17699 15.6768 9.17699C17.3268 9.17699 18.6768 7.82699 18.6768 6.16699C18.6768 4.50699 17.3268 3.16699 15.6768 3.16699Z" fill="#1565FF"/>
<path d="M18.6767 29.1968H12.6667C12.1667 29.1968 11.7367 28.8168 11.6767 28.3168L10.7867 21.1868H8.66675C8.11675 21.1868 7.66675 20.7368 7.66675 20.1868V17.1868C7.66675 15.0468 8.49675 13.0368 10.0167 11.5268C11.5367 10.0168 13.5367 9.17676 15.6767 9.17676C17.8167 9.17676 19.8267 10.0068 21.3367 11.5268C22.8467 13.0468 23.6867 15.0468 23.6867 17.1868V20.1868C23.6867 20.7368 23.2367 21.1868 22.6867 21.1868H20.5667L19.6767 28.3168C19.6167 28.8168 19.1867 29.1968 18.6867 29.1968H18.6767ZM13.5567 27.1968H17.7967L18.6867 20.0668C18.7467 19.5668 19.1767 19.1868 19.6767 19.1868H21.6767V17.1868C21.6767 15.5768 21.0567 14.0768 19.9167 12.9368C18.7767 11.7968 17.2767 11.1768 15.6667 11.1768C14.0567 11.1768 12.5567 11.7968 11.4167 12.9368C10.2767 14.0768 9.65675 15.5768 9.65675 17.1868V19.1868H11.6567C12.1567 19.1868 12.5867 19.5668 12.6467 20.0668L13.5367 27.1968H13.5567Z" fill="#1565FF"/>
</g>
<defs>
<clipPath id="clip0_16211_3122">
<rect width="16.02" height="28.03" fill="white" transform="translate(7.66675 1.16699)"/>
</clipPath>
</defs>
</svg>
