<svg width="35" height="34" viewBox="0 0 35 34" fill="none" xmlns="http://www.w3.org/2000/svg">
<path fill-rule="evenodd" clip-rule="evenodd" d="M18.3519 9.75549L11.0262 15.4026L11.4882 11.8324C11.6626 10.4845 10.7113 9.25041 9.36336 9.076C8.17031 8.92163 7.04054 9.65237 6.69201 10.8039L4.62651 17.6302L15.4196 31.6316L20.2167 28.5836C22.9876 26.823 23.6155 23.0462 21.5636 20.4837L18.375 16.5017L21.6226 13.9983L18.3519 9.75549Z" fill="#D7E0FF"/>
<path fill-rule="evenodd" clip-rule="evenodd" d="M22.312 6.70294L26.1305 3.75935C27.3022 2.85618 28.9841 3.07381 29.8873 4.24545C30.7905 5.41709 30.5728 7.09903 29.4012 8.0022L25.5826 10.9458L22.312 6.70294Z" fill="#D7E0FF"/>
<path fill-rule="evenodd" clip-rule="evenodd" d="M18.7313 8.20032L12.3277 13.1367L12.4798 11.9607C12.7251 10.0651 11.3872 8.32954 9.49161 8.08426C7.81374 7.86715 6.22493 8.89487 5.73481 10.5142L5.73479 10.5143L3.6693 17.3406C3.50935 17.8692 3.80821 18.4274 4.33683 18.5874C4.86545 18.7473 5.42364 18.4485 5.58358 17.9198L7.64906 11.0936C7.856 10.4098 8.52673 9.97608 9.23496 10.0677C10.0351 10.1713 10.5999 10.9039 10.4964 11.7041L10.0344 15.2743C9.98249 15.6754 10.1773 16.0683 10.5281 16.2697C10.8788 16.4712 11.3163 16.4415 11.6366 16.1946L19.9524 9.78432L18.7313 8.20032ZM22.002 12.4432L17.7645 15.7097C17.5519 15.8736 17.4141 16.1161 17.3821 16.3826C17.3501 16.6491 17.4266 16.9172 17.5944 17.1268L20.7828 21.1086C22.4627 23.2065 21.9486 26.2981 19.6802 27.7395L20.2165 28.5835L19.6802 27.7395L14.8833 30.7876C14.4171 31.0838 14.2794 31.7018 14.5756 32.168C14.8718 32.6341 15.4898 32.7719 15.9559 32.4757L20.7528 29.4275C24.0262 27.3475 24.7682 22.8859 22.344 19.8585L19.7923 16.6718L23.223 14.0272L22.002 12.4432Z" fill="#1565FF"/>
<path fill-rule="evenodd" clip-rule="evenodd" d="M26.543 4.70387C27.2772 4.13788 28.3312 4.27426 28.8972 5.00849C29.4632 5.74272 29.3268 6.79673 28.5926 7.36272L24.2222 10.7317L25.4432 12.3157L29.8136 8.94672C31.4227 7.70637 31.7216 5.3965 30.4812 3.78745C29.2408 2.1784 26.931 1.87952 25.3219 3.11987L20.9515 6.48886L22.1726 8.07286L26.543 4.70387Z" fill="#1565FF"/>
<path d="M18.2983 3.29883L32.5449 21.3325" stroke="#1565FF" stroke-width="2" stroke-linecap="round" stroke-linejoin="round"/>
</svg>
