<svg width="31" height="31" viewBox="0 0 31 31" fill="none" xmlns="http://www.w3.org/2000/svg">
<g clip-path="url(#clip0_16211_905)">
<path d="M11.8725 28.8171L10.6442 27.9981C9.37349 27.1512 8.26756 26.0804 7.38021 24.8378L4.57692 20.9129C3.91949 19.9926 3.93385 18.7523 4.61249 17.8474C5.63056 16.4901 7.65578 16.4584 8.71542 17.7833L10.8225 20.4171L10.8229 7.29209C10.8229 5.84245 11.9983 4.66709 13.4479 4.66709C14.8978 4.66709 16.0729 5.84245 16.0729 7.29209V4.14209C16.0729 2.69245 17.2483 1.51709 18.6979 1.51709C20.1478 1.51709 21.3229 2.69245 21.3229 4.14209V9.39209C21.3229 7.94245 22.4983 6.76709 23.9481 6.76709C25.3976 6.76709 26.5731 7.94245 26.5731 9.39209V24.9775C26.5731 26.0914 26.1306 27.1596 25.3429 27.9473L24.4731 28.8171H11.8725Z" fill="#D7E0FF"/>
<path d="M11.8722 28.817L10.6439 27.998C9.37344 27.1511 8.26751 26.0803 7.37994 24.8377L4.57665 20.9128C3.91922 19.9925 3.93358 18.7522 4.61244 17.8473C5.6303 16.49 7.65551 16.4583 8.71537 17.7832L10.8222 20.417C11.8722 20.417 14.3922 20.837 16.0722 22.517" stroke="#1565FF" stroke-width="2" stroke-linecap="round" stroke-linejoin="round" fill="#D7E0FF"/>
<path d="M10.823 20.4171V7.29209C10.823 5.84245 11.9984 4.66709 13.448 4.66709C14.8976 4.66709 16.073 5.84245 16.073 7.29209M16.073 7.29209V15.1671M16.073 7.29209V4.14209C16.073 2.69245 17.2484 1.51709 18.698 1.51709C20.1476 1.51709 21.323 2.69245 21.323 4.14209V9.39209M21.323 9.39209V16.2171M21.323 9.39209C21.323 7.94245 22.4984 6.76709 23.948 6.76709C25.3976 6.76709 26.573 7.94223 26.573 9.39209V24.9775C26.573 26.0914 26.1305 27.1596 25.343 27.9473L24.473 28.8171" stroke="#1565FF" stroke-width="2" stroke-linecap="round" stroke-linejoin="round" fill="#D7E0FF"/>
</g>
<defs>
<clipPath id="clip0_16211_905">
<rect width="30" height="30" fill="white" transform="translate(0.333252 0.166992)"/>
</clipPath>
</defs>
</svg>
