
<svg xmlns="http://www.w3.org/2000/svg" width="18" height="18" viewBox="0 0 18 18">
  <path d="M1.8,7.65a6.75,5.85 0,1 0,13.5 0a6.75,5.85 0,1 0,-13.5 0z" fill="#ffffff" />
<path d="M9,0C4.038,0 0,4.038 0,9C0,13.962 4.038,18 9,18C13.962,18 18,13.962 18,9C18,4.038 13.962,0 9,0ZM14.03,6.632L8.278,12.338C7.94,12.677 7.398,12.699 7.038,12.361L3.992,9.586C3.632,9.248 3.609,8.684 3.925,8.323C4.263,7.962 4.827,7.94 5.188,8.278L7.602,10.489L12.744,5.346C13.105,4.985 13.669,4.985 14.03,5.346C14.391,5.707 14.391,6.271 14.03,6.632Z" fill="#5271FF" />

</svg>
  