
<svg xmlns="http://www.w3.org/2000/svg" width="55" height="82" viewBox="0 0 55 82">
  <path d="M39.897,40.196L39.84,40.254L39.767,40.291C39.372,40.491 38.76,40.694 38.145,40.694C36.127,40.694 34.508,39.071 34.508,37.049V7.689C34.508,6.042 33.334,4.869 31.698,4.869C30.079,4.869 28.889,6.199 28.889,7.689V29.534C28.889,29.957 28.685,30.34 28.418,30.608C28.15,30.877 27.765,31.083 27.337,31.083C26.909,31.083 26.525,30.877 26.257,30.608C25.99,30.34 25.786,29.957 25.786,29.534V3.32C25.786,1.69 24.457,0.5 22.977,0.5C21.358,0.5 20.167,1.83 20.167,3.32V31.631C20.167,32.054 19.963,32.437 19.696,32.705C19.428,32.974 19.044,33.18 18.616,33.18C18.188,33.18 17.804,32.974 17.536,32.705C17.268,32.437 17.064,32.054 17.064,31.631V9.786C17.064,8.139 15.891,6.966 14.255,6.966C12.636,6.966 11.446,8.296 11.446,9.786V33.903C11.446,34.326 11.242,34.709 10.974,34.977C10.706,35.246 10.322,35.451 9.894,35.451C9.466,35.451 9.082,35.246 8.814,34.977C8.546,34.709 8.343,34.326 8.343,33.903V14.155C8.343,12.525 7.014,11.335 5.533,11.335C4.086,11.335 2.713,12.668 2.551,14.181V52.252C2.551,54.507 2.771,59.372 4.354,63.657C5.144,65.796 6.263,67.759 7.834,69.183C9.394,70.597 11.421,71.5 14.083,71.5H29.22C31.183,71.252 32.897,69.777 34.307,67.958C35.7,66.161 36.722,64.126 37.337,62.896C37.499,62.409 37.686,61.991 37.923,61.729C38.177,61.333 38.793,60.144 39.652,58.412C40.526,56.648 41.632,54.362 42.82,51.883C44.488,48.403 46.315,44.547 47.889,41.227C48.557,39.817 49.18,38.505 49.724,37.358L49.86,37.073H49.966C52.017,34.232 52.933,32.286 53.302,30.992C53.661,29.731 53.493,29.121 53.39,28.898C53.222,28.628 52.891,28.423 52.429,28.288C51.968,28.153 51.451,28.112 51.038,28.112C50.688,28.112 50.358,28.112 50.074,28.132C49.772,28.154 49.598,28.194 49.523,28.232L49.465,28.262L49.402,28.275C47.128,28.762 45.326,30.218 43.985,32.733C43.55,33.613 42.681,35.316 41.921,36.796C41.539,37.539 41.184,38.228 40.925,38.73L40.617,39.329L40.532,39.493L40.51,39.535L40.504,39.546L40.503,39.549L40.502,39.55L40.502,39.55L40.058,39.32L40.502,39.55L40.467,39.617L40.414,39.672L39.897,40.196Z" fill="#ffffff" />
<path d="M0.5,14.885C0.5,17.482 2.578,19.577 5.129,19.577C7.679,19.577 9.757,17.482 9.757,14.885C9.757,12.287 7.679,10.192 5.129,10.192C2.578,10.192 0.5,12.287 0.5,14.885Z" fill="#64A8FF" />
<path d="M26.021,67l-14,0l-0,12l14,0z" fill="#ffffff" />
<path d="M13.187,62H24.854C27.151,62 29.021,63.869 29.021,66.167V77.833C29.021,80.131 27.151,82 24.854,82H13.187C10.89,82 9.021,80.131 9.021,77.833V66.167C9.021,63.869 10.89,62 13.187,62ZM15.687,72.833H18.187V75.333C18.187,75.794 18.56,76.167 19.021,76.167C19.48,76.167 19.854,75.794 19.854,75.333V72.833H22.354C22.814,72.833 23.187,72.461 23.187,72C23.187,71.539 22.814,71.167 22.354,71.167H19.854V68.667C19.854,68.206 19.48,67.833 19.021,67.833C18.56,67.833 18.187,68.206 18.187,68.667V71.167H15.687C15.227,71.167 14.854,71.539 14.854,72C14.854,72.461 15.227,72.833 15.687,72.833Z" fill="#5271FF" />

</svg>
  