
<svg xmlns="http://www.w3.org/2000/svg" width="18" height="19" viewBox="0 0 18 19">
  <path d="M11.368,7.282H16.105C16.423,7.282 16.7,7.175 16.898,6.977C17.096,6.779 17.202,6.503 17.202,6.184V1.447C17.202,1.129 17.096,0.852 16.898,0.654C16.7,0.457 16.423,0.35 16.105,0.35C15.787,0.35 15.51,0.457 15.312,0.654C15.115,0.852 15.008,1.129 15.008,1.447V5.087H11.368C11.05,5.087 10.773,5.194 10.575,5.391C10.378,5.589 10.271,5.866 10.271,6.184C10.271,6.503 10.378,6.779 10.575,6.977C10.773,7.175 11.05,7.282 11.368,7.282Z" fill="#262E3A" />
<path d="M7.058,18.358L7.058,18.358L7.069,18.361C7.84,18.554 8.705,18.65 9.474,18.65C10.535,18.65 11.5,18.457 12.554,18.073C14.294,17.493 15.836,16.239 16.801,14.695L16.801,14.695L16.802,14.693C17.122,14.16 17.022,13.495 16.466,13.161C15.935,12.842 15.271,12.94 14.936,13.493C14.195,14.605 13.084,15.529 11.792,15.99L11.792,15.99L11.783,15.994C10.495,16.545 9.018,16.548 7.719,16.178C6.414,15.711 5.212,14.968 4.383,13.863L4.384,13.862L4.374,13.852C3.455,12.841 2.992,11.458 2.992,10.068C2.992,8.675 3.363,7.382 4.194,6.274L4.194,6.275L4.201,6.263C4.938,5.067 6.138,4.232 7.347,3.767C8.64,3.306 10.12,3.306 11.413,3.768C12.71,4.231 13.823,5.065 14.659,6.18C14.83,6.408 15.107,6.542 15.385,6.581C15.663,6.621 15.967,6.57 16.195,6.399C16.424,6.228 16.557,5.951 16.597,5.673C16.637,5.395 16.586,5.092 16.415,4.863C15.355,3.419 13.814,2.263 12.079,1.684C10.343,1.105 8.415,1.105 6.679,1.684C4.942,2.263 3.4,3.42 2.339,4.962C1.278,6.507 0.797,8.337 0.797,10.163C0.797,11.998 1.472,13.83 2.628,15.276C3.692,16.725 5.33,17.782 7.058,18.358Z" fill="#262E3A" />

</svg>
  