
<svg xmlns="http://www.w3.org/2000/svg" width="53" height="82" viewBox="0 0 53 82">
  <path d="M15.154,40.196L15.212,40.254L15.284,40.291C15.679,40.491 16.291,40.694 16.906,40.694C18.925,40.694 20.544,39.071 20.544,37.049V7.689C20.544,6.042 21.717,4.869 23.353,4.869C24.972,4.869 26.162,6.199 26.162,7.689V29.534C26.162,29.957 26.366,30.34 26.634,30.608C26.902,30.877 27.286,31.083 27.714,31.083C28.142,31.083 28.526,30.877 28.794,30.608C29.062,30.34 29.265,29.957 29.265,29.534V3.32C29.265,1.69 30.594,0.5 32.075,0.5C33.694,0.5 34.884,1.83 34.884,3.32V31.631C34.884,32.054 35.088,32.437 35.355,32.705C35.623,32.974 36.007,33.18 36.436,33.18C36.864,33.18 37.248,32.974 37.516,32.705C37.783,32.437 37.987,32.054 37.987,31.631V9.786C37.987,8.139 39.161,6.966 40.796,6.966C42.415,6.966 43.606,8.296 43.606,9.786V33.903C43.606,34.326 43.81,34.709 44.077,34.977C44.345,35.246 44.729,35.451 45.157,35.451C45.585,35.451 45.969,35.246 46.237,34.977C46.505,34.709 46.709,34.326 46.709,33.903V14.155C46.709,12.525 48.037,11.335 49.518,11.335C50.965,11.335 52.338,12.668 52.5,14.181V52.252C52.5,54.507 52.28,59.372 50.697,63.657C49.907,65.796 48.789,67.759 47.218,69.183C45.657,70.597 43.631,71.5 40.969,71.5H25.831C23.868,71.252 22.155,69.777 20.745,67.958C19.352,66.161 18.33,64.126 17.715,62.896C17.552,62.409 17.366,61.991 17.128,61.729C16.874,61.333 16.258,60.144 15.399,58.412C14.525,56.648 13.42,54.362 12.232,51.883C10.564,48.403 8.736,44.547 7.162,41.227C6.494,39.817 5.872,38.504 5.327,37.358L5.191,37.073H5.085C3.034,34.232 2.118,32.286 1.75,30.992C1.39,29.731 1.558,29.121 1.661,28.898C1.83,28.628 2.16,28.423 2.622,28.288C3.083,28.153 3.601,28.112 4.014,28.112C4.363,28.112 4.693,28.112 4.978,28.132C5.279,28.154 5.453,28.194 5.528,28.232L5.586,28.262L5.65,28.275C7.923,28.762 9.725,30.218 11.066,32.733C11.501,33.613 12.371,35.316 13.131,36.796C13.512,37.539 13.867,38.228 14.126,38.73L14.435,39.329L14.519,39.493L14.542,39.535L14.547,39.546L14.549,39.549L14.549,39.55L14.549,39.55L14.993,39.32L14.549,39.55L14.584,39.617L14.637,39.672L15.154,40.196Z" fill="#ffffff" />
<path d="M9.832,28.854C9.832,31.464 7.744,33.569 5.181,33.569C2.619,33.569 0.531,31.464 0.531,28.854C0.531,26.245 2.619,24.14 5.181,24.14C7.744,24.14 9.832,26.245 9.832,28.854Z" fill="#64A8FF" />
<path d="M27.031,67h14v12h-14z" fill="#ffffff" />
<path d="M39.864,62H28.197C25.9,62 24.031,63.869 24.031,66.167V77.833C24.031,80.131 25.9,82 28.197,82H39.864C42.162,82 44.031,80.131 44.031,77.833V66.167C44.031,63.869 42.162,62 39.864,62ZM37.364,72.833H34.864V75.333C34.864,75.794 34.491,76.167 34.031,76.167C33.571,76.167 33.197,75.794 33.197,75.333V72.833H30.697C30.237,72.833 29.864,72.461 29.864,72C29.864,71.539 30.237,71.167 30.697,71.167H33.197V68.667C33.197,68.206 33.571,67.833 34.031,67.833C34.491,67.833 34.864,68.206 34.864,68.667V71.167H37.364C37.824,71.167 38.197,71.539 38.197,72C38.197,72.461 37.824,72.833 37.364,72.833Z" fill="#5271FF" />

</svg>
  