
<svg xmlns="http://www.w3.org/2000/svg" width="395" height="387" viewBox="0 0 395 387">
  <path d="M0,0h395v387h-395z" fill="#ffffff" />
<path d="M0,335C0,333.89 0.9,333 2,333C3.1,333 4,333.89 4,335V387H0V335Z" fill="#EAEFFE" />
<path d="M52,383C53.1,383 54,383.89 54,385C54,386.11 53.1,387 52,387L-0,387L0,383L52,383Z" fill="#EAEFFE" />
<path d="M343,387C341.89,387 341,386.11 341,385C341,383.89 341.89,383 343,383L395,383L395,387L343,387Z" fill="#EAEFFE" />
<path d="M391,335C391,333.89 391.89,333 393,333C394.11,333 395,333.89 395,335V387H391V335Z" fill="#EAEFFE" />
<path d="M395,52C395,53.1 394.11,54 393,54C391.89,54 391,53.1 391,52L391,-0L395,0L395,52Z" fill="#EAEFFE" />
<path d="M343,4C341.89,4 341,3.1 341,2C341,0.9 341.89,0 343,0L395,0L395,4L343,4Z" fill="#EAEFFE" />
<path d="M52,-0C53.1,-0 54,0.9 54,2C54,3.1 53.1,4 52,4L-0,4L0,-0L52,-0Z" fill="#EAEFFE" />
<path d="M4,52C4,53.1 3.1,54 2,54C0.9,54 0,53.1 0,52L0,-0L4,0L4,52Z" fill="#EAEFFE" />

</svg>
  