
<svg xmlns="http://www.w3.org/2000/svg" width="52" height="72" viewBox="0 0 52 72">
  <path stroke="#5271FF" stroke-width="1" stroke-linejoin="round" d="M3.482,10.835C5.223,10.835 6.791,12.233 6.791,14.155V33.903C6.791,34.427 7.308,34.951 7.843,34.951C8.377,34.951 8.894,34.427 8.894,33.903V9.786C8.894,8.039 10.29,6.466 12.204,6.466C14.117,6.466 15.513,7.864 15.513,9.786V31.631C15.513,32.155 16.03,32.68 16.565,32.68C17.099,32.68 17.616,32.155 17.616,31.631V3.32C17.616,1.573 19.012,0 20.925,0C22.666,0 24.235,1.398 24.235,3.32V29.534C24.235,30.058 24.752,30.583 25.286,30.583C25.82,30.583 26.338,30.058 26.338,29.534V7.689C26.338,5.942 27.734,4.369 29.647,4.369C31.56,4.369 32.956,5.767 32.956,7.689V37.049C32.956,38.796 34.353,40.194 36.093,40.194C36.611,40.194 37.145,40.019 37.49,39.845C37.662,39.67 37.834,39.495 38.007,39.32C38.007,39.32 40.627,34.252 41.488,32.505C42.885,29.883 44.798,28.311 47.245,27.786C47.59,27.612 48.297,27.612 48.986,27.612C49.866,27.612 51.262,27.786 51.779,28.66C52.124,29.359 52.468,31.631 48.297,37.398C48.297,37.398 48.297,37.573 48.125,37.573C44.47,45.262 37.317,60.466 36.266,62.039C36.093,62.214 35.921,62.563 35.749,63.087C34.525,65.534 31.56,71.476 27.199,72H12.031C0.879,72 0,56.796 0,52.252V14.155C0.173,12.408 1.741,10.835 3.482,10.835Z" fill="#DFEAF8" />
<path d="M35.558,5.192a5.192,5.129 90,1 1,-10.257 0a5.192,5.129 90,1 1,10.257 0z" fill="#64A8FF" />

</svg>
  