
<svg xmlns="http://www.w3.org/2000/svg" width="51" height="72" viewBox="0 0 51 72">
  <path stroke="#FFA6A6" stroke-width="1" stroke-linejoin="round" d="M3.872,12.55C5.564,12.55 7.089,13.909 7.089,15.777V34.971C7.089,35.481 7.591,35.99 8.111,35.99C8.63,35.99 9.133,35.481 9.133,34.971V11.531C9.133,9.832 10.49,8.303 12.349,8.303C14.209,8.303 15.566,9.662 15.566,11.531V32.763C15.566,33.272 16.069,33.782 16.588,33.782C17.107,33.782 17.61,33.272 17.61,32.763V5.246C17.61,3.547 18.967,2.019 20.826,2.019C22.518,2.019 24.043,3.378 24.043,5.246V30.725C24.043,31.234 24.546,31.744 25.065,31.744C25.584,31.744 26.087,31.234 26.087,30.725V9.492C26.087,7.794 27.444,6.265 29.304,6.265C31.163,6.265 32.52,7.624 32.52,9.492V38.028C32.52,39.727 33.877,41.086 35.569,41.086C36.072,41.086 36.591,40.916 36.926,40.746C37.094,40.576 37.261,40.407 37.429,40.237C37.429,40.237 39.975,35.311 40.813,33.612C42.17,31.064 44.03,29.536 46.409,29.026C46.744,28.856 47.431,28.856 48.101,28.856C48.955,28.856 50.312,29.026 50.815,29.875C51.15,30.555 51.485,32.763 47.431,38.368C47.431,38.368 47.431,38.538 47.263,38.538C43.711,46.012 36.759,60.789 35.737,62.318C35.569,62.488 35.402,62.828 35.234,63.337C34.045,65.715 31.163,71.49 26.925,72H12.182C1.342,72 0.488,57.222 0.488,52.806V15.777C0.656,14.079 2.18,12.55 3.872,12.55Z" fill="#F1E1E1" />
<path d="M25.744,5.047a5.047,4.985 90,1 1,-9.969 0a5.047,4.985 90,1 1,9.969 0z" fill="#FFA6A6" />

</svg>
  