
<svg xmlns="http://www.w3.org/2000/svg" width="51" height="82" viewBox="0 0 51 82">
  <path stroke="#5271FF" stroke-width="1" stroke-linejoin="round" d="M36.795,41.097L36.737,41.155L36.665,41.192C36.279,41.388 35.682,41.586 35.082,41.586C33.112,41.586 31.532,40.002 31.532,38.028V9.492C31.532,7.899 30.398,6.765 28.816,6.765C27.251,6.765 26.099,8.051 26.099,9.492V30.725C26.099,31.14 25.899,31.516 25.637,31.778C25.375,32.042 24.998,32.244 24.577,32.244C24.157,32.244 23.78,32.042 23.517,31.778C23.256,31.516 23.055,31.14 23.055,30.725V5.246C23.055,3.669 21.77,2.519 20.339,2.519C18.773,2.519 17.622,3.805 17.622,5.246V32.763C17.622,33.178 17.422,33.554 17.16,33.817C16.897,34.08 16.521,34.282 16.1,34.282C15.679,34.282 15.303,34.08 15.04,33.817C14.778,33.554 14.578,33.178 14.578,32.763V11.531C14.578,9.937 13.444,8.803 11.861,8.803C10.296,8.803 9.145,10.09 9.145,11.531V34.971C9.145,35.386 8.945,35.762 8.683,36.025C8.42,36.288 8.044,36.49 7.623,36.49C7.202,36.49 6.826,36.288 6.563,36.025C6.301,35.762 6.101,35.386 6.101,34.971V15.777C6.101,14.2 4.816,13.05 3.384,13.05C1.986,13.05 0.657,14.339 0.5,15.803V52.806C0.5,54.996 0.714,59.724 2.251,63.886C3.019,65.964 4.105,67.869 5.63,69.252C7.144,70.624 9.11,71.5 11.694,71.5H26.406C28.308,71.259 29.97,69.83 31.34,68.063C32.693,66.318 33.685,64.341 34.283,63.146C34.441,62.674 34.623,62.266 34.855,62.008C35.102,61.624 35.7,60.469 36.534,58.786C37.383,57.072 38.458,54.851 39.613,52.441C41.234,49.059 43.011,45.311 44.54,42.084C45.189,40.714 45.794,39.438 46.324,38.323L46.459,38.038H46.565C48.554,35.281 49.443,33.393 49.8,32.138C50.148,30.916 49.986,30.327 49.887,30.114C49.726,29.855 49.409,29.658 48.962,29.527C48.515,29.397 48.014,29.356 47.613,29.356C47.273,29.356 46.953,29.356 46.677,29.376C46.384,29.397 46.217,29.436 46.147,29.472L46.089,29.501L46.026,29.515C43.821,29.987 42.072,31.399 40.77,33.84C40.348,34.696 39.503,36.351 38.764,37.79C38.393,38.512 38.049,39.181 37.797,39.67L37.496,40.251L37.414,40.41L37.393,40.452L37.387,40.463L37.386,40.465L37.386,40.466L37.385,40.466L36.941,40.237L37.385,40.466L37.35,40.534L37.297,40.588L37.046,40.842L36.795,41.097Z" fill="#ffffff" />
<path d="M15.787,5.047C15.787,7.564 17.801,9.593 20.272,9.593C22.743,9.593 24.756,7.564 24.756,5.047C24.756,2.53 22.743,0.5 20.272,0.5C17.801,0.5 15.787,2.53 15.787,5.047Z" fill="#64A8FF" />
<path d="M24.512,67l-14,0l-0,12l14,0z" fill="#ffffff" />
<path d="M11.679,62H23.346C25.643,62 27.512,63.869 27.512,66.167V77.833C27.512,80.131 25.643,82 23.346,82H11.679C9.381,82 7.512,80.131 7.512,77.833V66.167C7.512,63.869 9.381,62 11.679,62ZM14.179,72.833H16.679V75.333C16.679,75.794 17.052,76.167 17.512,76.167C17.972,76.167 18.346,75.794 18.346,75.333V72.833H20.846C21.306,72.833 21.679,72.461 21.679,72C21.679,71.539 21.306,71.167 20.846,71.167H18.346V68.667C18.346,68.206 17.972,67.833 17.512,67.833C17.052,67.833 16.679,68.206 16.679,68.667V71.167H14.179C13.719,71.167 13.345,71.539 13.345,72C13.345,72.461 13.719,72.833 14.179,72.833Z" fill="#5271FF" />

</svg>
  