
<svg xmlns="http://www.w3.org/2000/svg" width="52" height="72" viewBox="0 0 52 72">
  <path stroke="#FFA6A6" stroke-width="1" stroke-linejoin="round" d="M48.487,10.835C46.746,10.835 45.178,12.233 45.178,14.155V33.903C45.178,34.427 44.661,34.951 44.126,34.951C43.592,34.951 43.075,34.427 43.075,33.903V9.786C43.075,8.039 41.679,6.466 39.766,6.466C37.852,6.466 36.456,7.864 36.456,9.786V31.631C36.456,32.155 35.939,32.68 35.405,32.68C34.87,32.68 34.353,32.155 34.353,31.631V3.32C34.353,1.573 32.957,0 31.044,0C29.303,0 27.735,1.398 27.735,3.32V29.534C27.735,30.058 27.217,30.583 26.683,30.583C26.149,30.583 25.632,30.058 25.632,29.534V7.689C25.632,5.942 24.236,4.369 22.322,4.369C20.409,4.369 19.013,5.767 19.013,7.689V37.049C19.013,38.796 17.617,40.194 15.876,40.194C15.359,40.194 14.824,40.019 14.48,39.845C14.307,39.67 14.135,39.495 13.962,39.32C13.962,39.32 11.342,34.252 10.481,32.505C9.085,29.883 7.171,28.311 4.724,27.786C4.379,27.612 3.672,27.612 2.983,27.612C2.104,27.612 0.708,27.786 0.19,28.66C-0.154,29.359 -0.499,31.631 3.672,37.398C3.672,37.398 3.672,37.573 3.845,37.573C7.499,45.262 14.652,60.466 15.703,62.039C15.876,62.214 16.048,62.563 16.221,63.087C17.444,65.534 20.409,71.476 24.77,72H39.938C51.09,72 51.969,56.796 51.969,52.252V14.155C51.797,12.408 50.228,10.835 48.487,10.835Z" fill="#F1E1E1" />
<path d="M16.411,5.192a5.129,5.192 0,1 0,10.257 0a5.129,5.192 0,1 0,-10.257 0z" fill="#FFA6A6" />

</svg>
  