
<svg xmlns="http://www.w3.org/2000/svg" width="51" height="82" viewBox="0 0 51 82">
  <path stroke="#5271FF" stroke-width="1" stroke-linejoin="round" d="M13.718,41.097L13.775,41.155L13.847,41.192C14.233,41.388 14.83,41.586 15.431,41.586C17.4,41.586 18.98,40.002 18.98,38.028V9.492C18.98,7.899 20.114,6.765 21.696,6.765C23.262,6.765 24.413,8.051 24.413,9.492V30.725C24.413,31.14 24.613,31.516 24.875,31.778C25.138,32.042 25.514,32.244 25.935,32.244C26.356,32.244 26.732,32.042 26.995,31.778C27.257,31.516 27.457,31.14 27.457,30.725V5.246C27.457,3.669 28.742,2.519 30.174,2.519C31.739,2.519 32.89,3.805 32.89,5.246V32.763C32.89,33.178 33.09,33.554 33.352,33.817C33.615,34.08 33.992,34.282 34.412,34.282C34.833,34.282 35.209,34.08 35.472,33.817C35.734,33.554 35.934,33.178 35.934,32.763V11.531C35.934,9.937 37.069,8.803 38.651,8.803C40.216,8.803 41.367,10.09 41.367,11.531V34.971C41.367,35.386 41.568,35.762 41.829,36.025C42.092,36.288 42.469,36.49 42.889,36.49C43.31,36.49 43.687,36.288 43.949,36.025C44.211,35.762 44.411,35.386 44.411,34.971V15.777C44.411,14.2 45.696,13.05 47.128,13.05C48.526,13.05 49.855,14.339 50.012,15.803V52.806C50.012,54.996 49.798,59.724 48.261,63.886C47.493,65.964 46.407,67.869 44.882,69.252C43.368,70.624 41.402,71.5 38.818,71.5H24.106C22.204,71.259 20.542,69.83 19.172,68.063C17.819,66.318 16.827,64.341 16.229,63.146C16.072,62.674 15.89,62.266 15.658,62.008C15.41,61.624 14.812,60.469 13.979,58.786C13.129,57.072 12.054,54.851 10.899,52.441C9.278,49.059 7.502,45.311 5.972,42.084C5.323,40.714 4.718,39.438 4.188,38.323L4.053,38.038H3.948C1.958,35.281 1.07,33.393 0.712,32.138C0.364,30.916 0.527,30.327 0.625,30.114C0.786,29.855 1.103,29.658 1.55,29.527C1.997,29.397 2.499,29.356 2.899,29.356C3.239,29.356 3.559,29.356 3.835,29.376C4.128,29.397 4.295,29.436 4.365,29.472L4.423,29.501L4.487,29.515C6.691,29.987 8.44,31.399 9.742,33.84C10.164,34.696 11.009,36.351 11.748,37.79C12.119,38.512 12.464,39.181 12.716,39.67L13.016,40.251L13.098,40.41L13.12,40.452L13.125,40.463L13.126,40.465L13.127,40.466L13.127,40.466L13.571,40.237L13.127,40.466L13.162,40.534L13.215,40.588L13.466,40.842L13.718,41.097Z" fill="#ffffff" />
<path d="M34.725,5.047C34.725,7.564 32.712,9.593 30.241,9.593C27.77,9.593 25.756,7.564 25.756,5.047C25.756,2.53 27.77,0.5 30.241,0.5C32.712,0.5 34.725,2.53 34.725,5.047Z" fill="#64A8FF" />
<path d="M26,67h14v12h-14z" fill="#ffffff" />
<path d="M38.833,62H27.167C24.869,62 23,63.869 23,66.167V77.833C23,80.131 24.869,82 27.167,82H38.833C41.131,82 43,80.131 43,77.833V66.167C43,63.869 41.131,62 38.833,62ZM36.333,72.833H33.833V75.333C33.833,75.794 33.46,76.167 33,76.167C32.54,76.167 32.167,75.794 32.167,75.333V72.833H29.667C29.207,72.833 28.833,72.461 28.833,72C28.833,71.539 29.207,71.167 29.667,71.167H32.167V68.667C32.167,68.206 32.54,67.833 33,67.833C33.46,67.833 33.833,68.206 33.833,68.667V71.167H36.333C36.793,71.167 37.167,71.539 37.167,72C37.167,72.461 36.793,72.833 36.333,72.833Z" fill="#5271FF" />

</svg>
  