
<svg xmlns="http://www.w3.org/2000/svg" width="27" height="13" viewBox="0 0 27 13">
  <path d="M2.701,12L5.581,4.608H0.941V2.864H7.901V4.768L5.021,12H2.701ZM0.941,4.608V0.528H3.021V4.608H0.941ZM10.126,12.16L9.054,2.864H11.374L12.158,10.112C12.734,10.059 13.219,9.947 13.614,9.776C14.009,9.595 14.323,9.365 14.558,9.088C14.793,8.8 14.958,8.464 15.054,8.08C15.161,7.696 15.209,7.269 15.198,6.8V6.288C15.198,5.989 15.145,5.712 15.038,5.456C14.931,5.2 14.761,4.987 14.526,4.816C14.291,4.635 13.993,4.533 13.63,4.512L12.846,4.464L13.022,2.688L13.998,2.736C14.627,2.768 15.193,2.907 15.694,3.152C16.206,3.397 16.617,3.76 16.926,4.24C17.246,4.709 17.417,5.312 17.438,6.048L17.454,6.496C17.486,7.467 17.337,8.304 17.006,9.008C16.686,9.701 16.201,10.272 15.55,10.72C14.91,11.168 14.131,11.509 13.214,11.744C12.297,11.968 11.267,12.107 10.126,12.16ZM22.699,12V5.76C22.699,5.344 22.603,5.051 22.411,4.88C22.219,4.699 21.952,4.608 21.611,4.608H18.459V2.864H22.251C22.785,2.864 23.259,2.965 23.675,3.168C24.091,3.371 24.417,3.691 24.651,4.128C24.886,4.565 25.003,5.147 25.003,5.872V12H22.699ZM18.459,12V10.272H26.075V12H18.459Z" fill="#D51118" />

</svg>
  