
<svg xmlns="http://www.w3.org/2000/svg" width="32" height="32" viewBox="0 0 32 32">
  <path d="M17.88,9.333L12.227,15.053C12.102,15.177 12.002,15.325 11.935,15.487C11.867,15.65 11.832,15.824 11.832,16C11.832,16.176 11.867,16.35 11.935,16.513C12.002,16.675 12.102,16.823 12.227,16.947L17.88,22.6C18.004,22.725 18.151,22.824 18.314,22.892C18.476,22.959 18.651,22.994 18.827,22.994C19.003,22.994 19.177,22.959 19.339,22.892C19.502,22.824 19.649,22.725 19.773,22.6C20.022,22.35 20.161,22.012 20.161,21.66C20.161,21.308 20.022,20.97 19.773,20.72L15.053,16L19.773,11.28C20.02,11.032 20.159,10.696 20.16,10.347C20.161,10.171 20.127,9.997 20.061,9.835C19.995,9.672 19.897,9.525 19.773,9.4C19.654,9.271 19.51,9.166 19.35,9.093C19.19,9.019 19.017,8.978 18.841,8.972C18.664,8.966 18.489,8.994 18.324,9.056C18.159,9.119 18.008,9.213 17.88,9.333Z" fill="#A3AFB5" />

</svg>
  