
<svg xmlns="http://www.w3.org/2000/svg" width="395" height="387" viewBox="0 0 395 387">
  <path d="M245.27,267.81C242.31,270.6 239.09,273.14 235.69,275.37C235.66,275.39 235.63,275.42 235.59,275.44C234.72,276.01 234.45,277.17 234.99,278.06C235.36,278.66 236,278.99 236.65,278.99C237,278.99 237.35,278.9 237.66,278.71C237.72,278.67 237.79,278.63 237.84,278.59C241.42,276.25 244.81,273.57 247.93,270.63C248.71,269.9 248.75,268.67 248.01,267.89C247.28,267.12 246.05,267.08 245.27,267.82L245.27,267.81Z" fill="#EAEFFE" />
<path d="M235.59,275.44C235.59,275.44 235.59,275.44 235.6,275.44C235.61,275.43 235.62,275.41 235.64,275.4C235.64,275.4 235.61,275.43 235.58,275.45L235.59,275.44Z" fill="#EAEFFE" />
<path d="M266.47,236.47C265.45,236.15 264.36,236.73 264.05,237.75C262.87,241.53 261.37,245.24 259.57,248.77C256.94,253.93 253.66,258.75 249.82,263.11C249.11,263.92 249.19,265.14 249.99,265.85C250.36,266.17 250.82,266.33 251.27,266.33C251.81,266.33 252.34,266.1 252.73,265.67C256.78,261.07 260.25,255.97 263.03,250.52C264.92,246.8 266.51,242.89 267.75,238.89C268.07,237.87 267.49,236.79 266.47,236.47V236.47Z" fill="#EAEFFE" />
<path d="M180.06,101.85C180.32,101.85 180.58,101.79 180.82,101.69C183.34,100.62 185.93,99.64 188.54,98.78C189.56,98.44 190.11,97.35 189.77,96.33C189.44,95.32 188.34,94.77 187.33,95.1C184.62,95.99 181.92,97.01 179.3,98.13C178.32,98.55 177.86,99.69 178.28,100.67C178.6,101.4 179.32,101.85 180.07,101.85H180.06Z" fill="#EAEFFE" />
<path d="M135.43,134.17C135.98,134.17 136.52,133.94 136.9,133.49C146.33,122.41 157.91,113.22 171.31,106.19C172.26,105.7 172.63,104.53 172.13,103.58C171.63,102.64 170.46,102.27 169.51,102.77C155.66,110.03 143.7,119.52 133.95,130.98C133.25,131.8 133.35,133.02 134.17,133.71C134.53,134.02 134.98,134.17 135.42,134.17L135.43,134.17Z" fill="#EAEFFE" />
<path d="M194.21,105.04C194.38,105.04 194.56,105.01 194.74,104.96C202.62,102.73 210.8,101.57 219.07,101.53C220.14,101.52 221,100.65 221,99.58C220.99,98.52 220.13,97.66 219.06,97.66H219.05C210.43,97.7 201.89,98.91 193.68,101.24C192.65,101.53 192.05,102.6 192.34,103.63C192.59,104.48 193.36,105.03 194.21,105.03V105.04Z" fill="#EAEFFE" />
<path d="M182.34,105.25C169.14,110.87 157.5,118.42 147.74,127.68C146.96,128.41 146.93,129.64 147.67,130.41C148.05,130.81 148.56,131.01 149.07,131.01C149.55,131.01 150.04,130.84 150.41,130.48C159.83,121.54 171.09,114.25 183.86,108.81C184.85,108.39 185.3,107.26 184.88,106.27C184.46,105.29 183.32,104.83 182.34,105.25Z" fill="#EAEFFE" />
<path d="M125.56,161.69C125.84,161.82 126.13,161.88 126.42,161.88C127.13,161.88 127.82,161.48 128.16,160.8C128.98,159.12 129.91,157.36 130.93,155.55C134.15,149.84 137.86,144.44 141.95,139.52C142.63,138.7 142.52,137.48 141.69,136.8C140.87,136.12 139.65,136.23 138.96,137.05C134.73,142.15 130.89,147.74 127.55,153.65C126.5,155.52 125.53,157.35 124.68,159.09C124.21,160.05 124.61,161.21 125.57,161.68L125.56,161.69Z" fill="#EAEFFE" />
<path d="M127.59,180.72C128.88,178.89 129.88,176.98 130.55,175.05C132.44,169.65 134.77,164.51 137.68,159.36C148.76,139.73 165.33,125.11 186.91,115.93C197.29,111.5 208.29,109.26 219.6,109.26C226.02,109.26 232.41,110 238.62,111.45C239.66,111.69 240.7,111.04 240.95,110C241.19,108.96 240.54,107.92 239.5,107.68C233.01,106.16 226.32,105.39 219.6,105.39C207.77,105.39 196.26,107.74 185.39,112.36C163,121.9 145.82,137.07 134.31,157.45C131.28,162.82 128.86,168.16 126.89,173.78C126.34,175.37 125.51,176.95 124.43,178.48C124.43,178.48 123.27,180.35 124.78,181.31C126.32,182.29 127.6,180.71 127.6,180.71L127.59,180.72Z" fill="#EAEFFE" />
<path d="M125.14,196.5C125.41,196.64 125.7,196.7 125.99,196.7C126.71,196.7 127.4,196.3 127.73,195.61C130.09,190.78 132.98,186.2 136.32,181.98C136.48,181.79 136.59,181.57 136.66,181.34C138.56,175.02 141.1,169.07 144.44,163.16C154.66,145.05 169.97,131.56 189.95,123.05C199.37,119.04 209.35,117 219.6,117C230.96,117 241.9,119.46 252.11,124.31C253.08,124.77 254.24,124.36 254.7,123.39C255.15,122.43 254.74,121.27 253.78,120.82C243.04,115.72 231.54,113.13 219.6,113.13C208.82,113.13 198.33,115.27 188.42,119.49C167.64,128.34 151.71,142.39 141.05,161.26C137.64,167.32 135.02,173.41 133.05,179.87C129.63,184.23 126.67,188.95 124.25,193.92C123.78,194.88 124.18,196.04 125.14,196.51V196.5Z" fill="#EAEFFE" />
<path d="M143.69,184.96C145.45,178.67 147.9,172.78 151.19,166.96C160.56,150.37 174.62,137.99 192.99,130.17C201.44,126.57 210.39,124.75 219.6,124.75C234.56,124.75 249.29,129.76 261.09,138.86C261.94,139.51 263.16,139.36 263.81,138.51C264.47,137.66 264.31,136.45 263.46,135.79C250.99,126.18 235.41,120.88 219.6,120.88C209.87,120.88 200.4,122.8 191.47,126.61C172.3,134.77 157.61,147.71 147.81,165.06C144.44,171.03 141.9,177.07 140.07,183.52C131.11,194.44 125.63,207.65 124.22,221.73C124.11,222.79 124.89,223.74 125.95,223.84C126.02,223.85 126.08,223.85 126.15,223.85C127.13,223.85 127.97,223.11 128.07,222.11C129.43,208.66 134.7,196.06 143.32,185.67C143.49,185.46 143.62,185.21 143.69,184.95L143.69,184.96Z" fill="#EAEFFE" />
<path d="M138.96,249.02C131.66,228.6 136.02,205.75 150.32,189.39C150.52,189.16 150.66,188.89 150.74,188.6C152.34,182.36 154.7,176.52 157.95,170.76C166.46,155.69 179.27,144.43 196.03,137.3C203.53,134.1 211.46,132.49 219.6,132.49C237.71,132.49 254.65,140.49 266.09,154.44C266.77,155.27 267.99,155.39 268.82,154.71C269.65,154.04 269.77,152.82 269.09,151.99C256.92,137.14 238.88,128.62 219.61,128.62C210.94,128.62 202.5,130.34 194.51,133.74C176.95,141.21 163.51,153.03 154.57,168.86C151.23,174.79 148.79,180.79 147.1,187.2C132.12,204.58 127.6,228.72 135.31,250.32C138,257.88 142.07,264.79 147.38,270.86C147.77,271.3 148.3,271.52 148.85,271.52C149.3,271.52 149.75,271.37 150.12,271.05C150.93,270.34 151.01,269.12 150.3,268.31C145.31,262.61 141.49,256.12 138.96,249.02Z" fill="#EAEFFE" />
<path d="M255.35,248.38C257.36,244.85 259.05,241.18 260.38,237.47C260.74,236.46 260.21,235.35 259.2,234.99C258.19,234.63 257.08,235.15 256.72,236.16C255.47,239.66 253.87,243.13 251.97,246.48C243.6,261.26 230.53,271.9 213.14,278.1C207.47,280.11 201.56,281.13 195.56,281.13C173.49,281.13 153.67,267.18 146.26,246.42C139.77,228.23 144.12,207.32 157.35,193.16C157.58,192.92 157.74,192.61 157.82,192.28C159.26,186.02 161.51,180.22 164.7,174.57C172.35,161.01 183.92,150.87 199.07,144.42C205.6,141.64 212.51,140.23 219.6,140.23C240.13,140.23 258.85,152.29 267.29,170.96C267.73,171.93 268.88,172.36 269.86,171.92C270.83,171.48 271.27,170.34 270.83,169.36C261.75,149.31 241.65,136.36 219.6,136.36C211.99,136.36 204.57,137.87 197.55,140.86C181.6,147.65 169.4,158.35 161.32,172.67C158.03,178.5 155.69,184.47 154.16,190.91C140.01,206.32 135.59,228.04 142.61,247.73C150.57,270.02 171.85,285 195.57,285C202,285 208.36,283.91 214.45,281.75C232.74,275.23 246.5,264 255.35,248.38H255.35Z" fill="#EAEFFE" />
<path d="M269.85,212.95C268.87,212.51 267.73,212.95 267.29,213.92C265.34,218.28 262.78,222.37 259.69,226.08C259,226.9 259.11,228.12 259.93,228.8C260.3,229.1 260.74,229.25 261.17,229.25C261.73,229.25 262.28,229.01 262.66,228.56C265.99,224.58 268.74,220.18 270.83,215.5C271.27,214.53 270.83,213.38 269.85,212.95V212.95Z" fill="#EAEFFE" />
<path d="M219.6,144.1C213.03,144.1 206.64,145.4 200.59,147.98C186.24,154.09 175.3,163.67 168.08,176.46C164.82,182.23 162.59,188.2 161.26,194.69C148.12,207.88 143.66,227.6 149.91,245.12C156.77,264.35 175.12,277.26 195.56,277.26C201.12,277.26 206.6,276.32 211.84,274.45C228.32,268.58 240.69,258.53 248.6,244.57C252.16,238.29 254.5,231.79 255.74,224.71C268.2,210.73 271.52,190.69 264.18,173.51C256.55,155.64 239.05,144.1 219.59,144.1H219.6ZM252.5,222.53C252.24,222.8 252.08,223.15 252.02,223.51C250.88,230.35 248.65,236.62 245.23,242.67C237.79,255.79 226.12,265.25 210.54,270.8C205.72,272.52 200.68,273.39 195.57,273.39C176.76,273.39 159.88,261.5 153.56,243.82C147.75,227.53 152.01,209.16 164.41,197.02C164.69,196.75 164.88,196.39 164.96,196.01C166.18,189.71 168.31,183.94 171.46,178.36C178.25,166.33 188.57,157.3 202.11,151.53C207.67,149.16 213.55,147.96 219.6,147.96C237.5,147.96 253.6,158.58 260.62,175.02C267.44,190.99 264.25,209.64 252.5,222.52V222.53Z" fill="#EAEFFE" />
<path d="M219.6,151.84C214.08,151.84 208.71,152.94 203.64,155.1C190.89,160.52 181.2,168.99 174.84,180.27C171.61,185.99 169.51,191.98 168.44,198.56C156.21,209.49 151.7,227.06 157.22,242.52C162.98,258.67 178.4,269.52 195.56,269.52C200.23,269.52 204.83,268.73 209.23,267.16C223.91,261.93 234.89,253.05 241.85,240.76C245.32,234.63 247.49,228.22 248.45,221.16C260.04,209.5 263.5,191.66 257.05,176.55C250.64,161.54 235.94,151.84 219.6,151.84V151.84ZM245.26,218.86C244.95,219.17 244.75,219.58 244.7,220.01C243.84,226.82 241.81,232.98 238.48,238.85C231.99,250.31 221.71,258.61 207.93,263.51C203.95,264.93 199.79,265.65 195.57,265.65C180.03,265.65 166.09,255.83 160.87,241.22C155.8,227.03 160.08,210.87 171.52,201.01C171.87,200.71 172.1,200.29 172.17,199.84C173.13,193.45 175.11,187.66 178.21,182.16C184.15,171.65 193.22,163.74 205.16,158.65C209.75,156.7 214.61,155.71 219.6,155.71C234.39,155.71 247.69,164.48 253.49,178.06C259.41,191.92 256.1,208.32 245.27,218.86L245.26,218.86Z" fill="#EAEFFE" />
<path d="M219.6,159.58C215.14,159.58 210.79,160.47 206.68,162.22C195.54,166.96 187.1,174.31 181.59,184.07C178.38,189.75 176.46,195.82 175.71,202.6C164.3,211.2 159.7,226.41 164.52,239.92C169.19,252.99 181.67,261.78 195.57,261.78C199.34,261.78 203.07,261.13 206.63,259.86C219.5,255.28 229.08,247.57 235.1,236.95C238.5,230.96 240.45,224.58 241.07,217.46C251.88,208.17 255.53,192.73 249.92,179.58C244.73,167.43 232.83,159.58 219.6,159.58ZM237.97,215C237.55,215.34 237.3,215.83 237.26,216.36C236.77,223.23 234.96,229.34 231.73,235.04C226.18,244.84 217.3,251.96 205.33,256.22C202.18,257.34 198.9,257.91 195.57,257.91C183.3,257.91 172.29,250.16 168.17,238.62C163.83,226.46 168.15,212.73 178.68,205.23C179.14,204.91 179.44,204.4 179.49,203.84C180.11,197.25 181.9,191.41 184.97,185.97C190.05,176.97 197.87,170.18 208.2,165.79C211.83,164.24 215.66,163.46 219.6,163.46C231.28,163.46 241.78,170.38 246.35,181.1C251.4,192.92 247.96,206.86 237.97,215L237.97,215Z" fill="#EAEFFE" />
<path d="M219.6,167.32C218.53,167.32 217.66,168.19 217.66,169.26C217.66,170.33 218.53,171.19 219.6,171.19C228.16,171.19 235.86,176.27 239.22,184.14C243.37,193.86 239.66,205.3 230.59,210.73C230.01,211.08 229.66,211.7 229.65,212.38C229.62,217.38 229.05,224.04 224.98,231.23C220.37,239.35 212.89,245.31 202.72,248.93C200.41,249.75 198.01,250.16 195.57,250.16C186.57,250.16 178.5,244.48 175.48,236.02C171.87,225.93 176.38,214.69 185.94,209.87C186.58,209.54 186.99,208.89 187.01,208.18C187.09,203.71 187.67,196.95 191.72,189.77C195.94,182.29 202.51,176.61 211.24,172.9C212.22,172.48 212.68,171.34 212.26,170.36C211.84,169.37 210.7,168.92 209.72,169.34C200.19,173.39 193,179.63 188.35,187.87C184.2,195.21 183.34,202.1 183.16,206.96C172.57,212.93 167.7,225.76 171.82,237.32C175.4,247.31 184.94,254.03 195.57,254.03C198.45,254.03 201.3,253.54 204.03,252.57C215.09,248.63 223.28,242.09 228.35,233.13C232.58,225.67 233.4,218.79 233.51,213.46C243.56,206.83 247.55,193.77 242.78,182.61C238.82,173.32 229.71,167.32 219.6,167.32L219.6,167.32Z" fill="#EAEFFE" />
<path d="M226.45,208.51C235.3,204.74 239.43,194.49 235.65,185.65C232.91,179.22 226.61,175.06 219.6,175.06C217.24,175.06 214.94,175.54 212.76,176.46C204.84,179.84 198.89,184.95 195.1,191.67C190.79,199.29 190.85,206.46 190.88,210.74C190.88,211.06 190.88,211.53 190.88,211.99C190.58,212.13 190.2,212.29 189.7,212.47C180.64,215.69 175.9,225.68 179.13,234.72C181.6,241.64 188.2,246.29 195.56,246.29C197.56,246.29 199.53,245.95 201.42,245.28C210.68,241.98 217.47,236.62 221.6,229.32C225.85,221.83 225.8,215 225.77,210.47C225.77,210.07 225.76,209.4 225.77,208.82C225.95,208.73 226.17,208.63 226.44,208.51L226.45,208.51ZM224.93,204.95C223.64,205.49 222.94,206.01 222.57,206.35C222.23,206.66 222.01,207.1 221.96,207.57C221.89,208.23 221.89,209.38 221.9,210.52C221.93,214.62 221.97,220.82 218.23,227.42C214.57,233.88 208.48,238.66 200.12,241.63C198.65,242.16 197.12,242.42 195.57,242.42C189.84,242.42 184.7,238.81 182.78,233.42C180.27,226.39 183.96,218.62 191.01,216.11C192.54,215.57 193.43,215.05 193.91,214.71C194.39,214.37 194.69,213.83 194.73,213.24C194.77,212.53 194.76,211.39 194.76,210.71C194.73,206.82 194.68,200.3 198.48,193.57C201.84,187.62 207.16,183.06 214.28,180.02C215.98,179.3 217.76,178.94 219.6,178.94C225.05,178.94 229.95,182.17 232.09,187.17C235.02,194.04 231.81,202.02 224.93,204.95Z" fill="#EAEFFE" />
<path d="M223.22,183.51C220.82,182.54 218.18,182.57 215.8,183.59C213.5,184.56 211.39,185.74 209.52,187.06C208.65,187.68 208.45,188.89 209.07,189.76C209.69,190.63 210.9,190.83 211.77,190.21C213.41,189.05 215.28,188.02 217.32,187.15C218.75,186.54 220.33,186.52 221.77,187.1C223.21,187.68 224.34,188.79 224.95,190.21C226.21,193.16 224.83,196.57 221.88,197.83C218.78,199.15 216.59,200.92 215.36,203.08C214.16,205.21 214.12,207.21 214.14,210.58C214.15,212.45 214.17,214.56 213.83,216.76C213.67,217.82 214.4,218.81 215.46,218.97C215.55,218.98 215.65,218.99 215.75,218.99C216.69,218.99 217.52,218.3 217.66,217.35C218.05,214.84 218.03,212.57 218.01,210.55C217.99,207.48 218.05,206.2 218.74,204.98C219.53,203.58 221.1,202.37 223.4,201.39C228.32,199.3 230.62,193.6 228.52,188.7C227.5,186.32 225.62,184.48 223.22,183.51V183.51Z" fill="#EAEFFE" />
<path d="M206.36,229.56C203.95,231.5 200.98,233.11 197.52,234.34C196.88,234.57 196.23,234.68 195.57,234.68C193.11,234.68 190.91,233.13 190.09,230.82C189.01,227.81 190.59,224.48 193.61,223.4C197.45,222.04 200.06,220.18 201.36,217.89C202.54,215.79 202.53,213.64 202.51,210.66C202.48,206.94 202.45,202.31 205.23,197.38C205.76,196.45 205.43,195.27 204.49,194.74C203.56,194.22 202.38,194.55 201.85,195.48C198.56,201.3 198.6,206.73 198.63,210.69C198.65,213.66 198.6,214.89 197.98,215.98C197.17,217.43 195.2,218.73 192.31,219.76C187.27,221.56 184.64,227.1 186.43,232.13C187.81,235.97 191.48,238.56 195.57,238.56C196.67,238.56 197.77,238.37 198.82,237.99C202.69,236.62 206.05,234.79 208.79,232.58C209.63,231.91 209.76,230.69 209.09,229.86C208.42,229.03 207.2,228.9 206.36,229.57V229.56Z" fill="#EAEFFE" />

</svg>
  