
<svg xmlns="http://www.w3.org/2000/svg" width="55" height="72" viewBox="0 0 55 72">
  <path d="M5.533,10.835C7.274,10.835 8.843,12.233 8.843,14.155V33.903C8.843,34.427 9.36,34.951 9.894,34.951C10.428,34.951 10.946,34.427 10.946,33.903V9.786C10.946,8.039 12.342,6.466 14.255,6.466C16.168,6.466 17.564,7.864 17.564,9.786V31.631C17.564,32.155 18.081,32.68 18.616,32.68C19.15,32.68 19.667,32.155 19.667,31.631V3.32C19.667,1.573 21.063,0 22.977,0C24.718,0 26.286,1.398 26.286,3.32V29.534C26.286,30.058 26.803,30.583 27.337,30.583C27.872,30.583 28.389,30.058 28.389,29.534V7.689C28.389,5.942 29.785,4.369 31.698,4.369C33.611,4.369 35.008,5.767 35.008,7.689V37.049C35.008,38.796 36.404,40.194 38.145,40.194C38.662,40.194 39.196,40.019 39.541,39.845C39.713,39.67 39.886,39.495 40.058,39.32C40.058,39.32 42.678,34.252 43.54,32.505C44.936,29.883 46.849,28.311 49.297,27.786C49.641,27.612 50.348,27.612 51.038,27.612C51.917,27.612 53.313,27.786 53.83,28.66C54.175,29.359 54.52,31.631 50.348,37.398C50.348,37.398 50.348,37.573 50.176,37.573C46.522,45.262 39.368,60.466 38.317,62.039C38.145,62.214 37.972,62.563 37.8,63.087C36.576,65.534 33.611,71.476 29.251,72H14.083C2.93,72 2.051,56.796 2.051,52.252V14.155C2.224,12.408 3.792,10.835 5.533,10.835Z" fill="#F1E1E1" />
<path d="M10.257,14.885a5.192,5.129 90,1 1,-10.257 0a5.192,5.129 90,1 1,10.257 0z" fill="#FFA6A6" />

</svg>
  