
<svg xmlns="http://www.w3.org/2000/svg" width="52" height="82" viewBox="0 0 52 82">
  <path d="M37.846,40.196L37.788,40.254L37.716,40.291C37.321,40.491 36.709,40.694 36.093,40.694C34.075,40.694 32.456,39.071 32.456,37.049V7.689C32.456,6.042 31.283,4.869 29.647,4.869C28.028,4.869 26.838,6.199 26.838,7.689V29.534C26.838,29.957 26.634,30.34 26.366,30.608C26.098,30.877 25.714,31.083 25.286,31.083C24.858,31.083 24.474,30.877 24.206,30.608C23.938,30.34 23.735,29.957 23.735,29.534V3.32C23.735,1.69 22.406,0.5 20.925,0.5C19.306,0.5 18.116,1.83 18.116,3.32V31.631C18.116,32.054 17.912,32.437 17.645,32.705C17.377,32.974 16.993,33.18 16.565,33.18C16.136,33.18 15.752,32.974 15.484,32.705C15.217,32.437 15.013,32.054 15.013,31.631V9.786C15.013,8.139 13.839,6.966 12.204,6.966C10.585,6.966 9.394,8.296 9.394,9.786V33.903C9.394,34.326 9.19,34.709 8.923,34.977C8.655,35.246 8.271,35.451 7.843,35.451C7.415,35.451 7.031,35.246 6.763,34.977C6.495,34.709 6.291,34.326 6.291,33.903V14.155C6.291,12.525 4.962,11.335 3.482,11.335C2.035,11.335 0.662,12.668 0.5,14.181V52.252C0.5,54.507 0.72,59.372 2.303,63.657C3.093,65.796 4.212,67.759 5.782,69.183C7.343,70.597 9.369,71.5 12.031,71.5H27.169C29.132,71.252 30.845,69.777 32.255,67.958C33.648,66.161 34.67,64.126 35.285,62.896C35.448,62.409 35.634,61.991 35.871,61.729C36.126,61.333 36.742,60.144 37.6,58.412C38.475,56.648 39.58,54.362 40.768,51.883C42.436,48.403 44.264,44.547 45.838,41.227C46.506,39.817 47.128,38.505 47.673,37.358L47.809,37.073H47.915C49.966,34.232 50.882,32.286 51.25,30.992C51.61,29.731 51.442,29.121 51.339,28.898C51.171,28.628 50.84,28.423 50.378,28.288C49.917,28.153 49.399,28.112 48.986,28.112C48.637,28.112 48.307,28.112 48.022,28.132C47.721,28.154 47.547,28.194 47.472,28.232L47.414,28.262L47.35,28.275C45.077,28.762 43.275,30.218 41.933,32.733C41.499,33.613 40.629,35.316 39.869,36.796C39.488,37.539 39.133,38.228 38.874,38.73L38.565,39.329L38.481,39.493L38.458,39.535L38.453,39.546L38.451,39.549L38.451,39.55L38.451,39.55L38.007,39.32L38.451,39.55L38.416,39.617L38.363,39.672L37.846,40.196Z" fill="#ffffff" />
<path d="M7.338,7.269C7.338,9.867 9.416,11.962 11.967,11.962C14.517,11.962 16.595,9.867 16.595,7.269C16.595,4.672 14.517,2.577 11.967,2.577C9.416,2.577 7.338,4.672 7.338,7.269Z" fill="#64A8FF" />
<path d="M24.969,67l-14,0l-0,12l14,0z" fill="#ffffff" />
<path d="M12.136,62H23.803C26.1,62 27.969,63.869 27.969,66.167V77.833C27.969,80.131 26.1,82 23.803,82H12.136C9.838,82 7.969,80.131 7.969,77.833V66.167C7.969,63.869 9.838,62 12.136,62ZM14.636,72.833H17.136V75.333C17.136,75.794 17.509,76.167 17.969,76.167C18.429,76.167 18.803,75.794 18.803,75.333V72.833H21.303C21.763,72.833 22.136,72.461 22.136,72C22.136,71.539 21.763,71.167 21.303,71.167H18.803V68.667C18.803,68.206 18.429,67.833 17.969,67.833C17.509,67.833 17.136,68.206 17.136,68.667V71.167H14.636C14.176,71.167 13.803,71.539 13.803,72C13.803,72.461 14.176,72.833 14.636,72.833Z" fill="#5271FF" />

</svg>
  