
<svg xmlns="http://www.w3.org/2000/svg" width="52" height="82" viewBox="0 0 52 82">
  <path d="M14.124,40.196L14.181,40.254L14.253,40.291C14.648,40.491 15.26,40.694 15.876,40.694C17.894,40.694 19.513,39.071 19.513,37.049V7.689C19.513,6.042 20.686,4.869 22.322,4.869C23.941,4.869 25.132,6.199 25.132,7.689V29.534C25.132,29.957 25.335,30.34 25.603,30.608C25.871,30.877 26.255,31.083 26.683,31.083C27.111,31.083 27.495,30.877 27.763,30.608C28.031,30.34 28.235,29.957 28.235,29.534V3.32C28.235,1.69 29.563,0.5 31.044,0.5C32.663,0.5 33.853,1.83 33.853,3.32V31.631C33.853,32.054 34.057,32.437 34.325,32.705C34.593,32.974 34.977,33.18 35.405,33.18C35.833,33.18 36.217,32.974 36.485,32.705C36.752,32.437 36.956,32.054 36.956,31.631V9.786C36.956,8.139 38.13,6.966 39.766,6.966C41.384,6.966 42.575,8.296 42.575,9.786V33.903C42.575,34.326 42.779,34.709 43.046,34.977C43.314,35.246 43.698,35.451 44.126,35.451C44.555,35.451 44.939,35.246 45.207,34.977C45.474,34.709 45.678,34.326 45.678,33.903V14.155C45.678,12.525 47.007,11.335 48.487,11.335C49.934,11.335 51.307,12.668 51.469,14.181V52.252C51.469,54.507 51.249,59.372 49.667,63.657C48.876,65.796 47.758,67.759 46.187,69.183C44.627,70.597 42.6,71.5 39.938,71.5H24.801C22.838,71.252 21.124,69.777 19.714,67.958C18.321,66.161 17.299,64.126 16.684,62.896C16.521,62.409 16.335,61.991 16.098,61.729C15.843,61.333 15.227,60.144 14.369,58.412C13.495,56.648 12.389,54.362 11.201,51.883C9.533,48.403 7.705,44.547 6.131,41.227C5.463,39.817 4.841,38.505 4.296,37.358L4.161,37.073H4.054C2.003,34.232 1.088,32.286 0.719,30.992C0.36,29.731 0.527,29.121 0.631,28.898C0.799,28.628 1.129,28.423 1.591,28.288C2.053,28.153 2.57,28.112 2.983,28.112C3.332,28.112 3.662,28.112 3.947,28.132C4.249,28.154 4.422,28.194 4.498,28.232L4.556,28.262L4.619,28.275C6.892,28.762 8.695,30.218 10.036,32.733C10.47,33.613 11.34,35.316 12.1,36.796C12.481,37.539 12.836,38.228 13.095,38.73L13.404,39.329L13.489,39.493L13.511,39.535L13.516,39.546L13.518,39.549L13.518,39.55L13.518,39.55L13.962,39.32L13.518,39.55L13.553,39.617L13.606,39.672L14.124,40.196Z" fill="#ffffff" />
<path d="M44.631,7.269C44.631,9.867 42.553,11.962 40.003,11.962C37.452,11.962 35.374,9.867 35.374,7.269C35.374,4.672 37.452,2.577 40.003,2.577C42.553,2.577 44.631,4.672 44.631,7.269Z" fill="#64A8FF" />
<path d="M27,67h14v12h-14z" fill="#ffffff" />
<path d="M39.833,62H28.167C25.869,62 24,63.869 24,66.167V77.833C24,80.131 25.869,82 28.167,82H39.833C42.131,82 44,80.131 44,77.833V66.167C44,63.869 42.131,62 39.833,62ZM37.333,72.833H34.833V75.333C34.833,75.794 34.46,76.167 34,76.167C33.54,76.167 33.167,75.794 33.167,75.333V72.833H30.667C30.207,72.833 29.833,72.461 29.833,72C29.833,71.539 30.207,71.167 30.667,71.167H33.167V68.667C33.167,68.206 33.54,67.833 34,67.833C34.46,67.833 34.833,68.206 34.833,68.667V71.167H37.333C37.793,71.167 38.167,71.539 38.167,72C38.167,72.461 37.793,72.833 37.333,72.833Z" fill="#5271FF" />

</svg>
  