
<svg xmlns="http://www.w3.org/2000/svg" width="20" height="18" viewBox="0 0 20 18">
  <path d="M8.309,1.372L4.51,4.217H1.041C0.468,4.217 0,4.686 0,5.258V12.509C0,13.081 0.468,13.549 1.041,13.549H4.51L8.309,16.394C9.003,16.914 9.974,16.429 9.974,15.561V2.205C9.974,1.338 8.985,0.852 8.309,1.372Z" fill="#5271FF" />
<path d="M13.409,3.072C12.94,2.604 12.16,2.604 11.692,3.072C11.223,3.541 11.223,4.321 11.692,4.79C13.947,7.045 13.947,10.705 11.692,12.96C11.223,13.428 11.223,14.209 11.692,14.677C11.934,14.92 12.247,15.024 12.541,15.024C12.836,15.024 13.166,14.903 13.391,14.66C16.618,11.485 16.618,6.281 13.409,3.072Z" fill="#5271FF" />
<path d="M14.761,0.349C14.293,0.817 14.293,1.598 14.761,2.066C16.583,3.888 17.589,6.299 17.589,8.883C17.589,11.468 16.583,13.879 14.761,15.7C14.293,16.169 14.293,16.949 14.761,17.418C15.004,17.66 15.316,17.782 15.611,17.782C15.924,17.782 16.236,17.66 16.461,17.435C18.733,15.163 20,12.127 20,8.901C20,5.674 18.751,2.656 16.461,0.366C16.01,-0.119 15.247,-0.119 14.761,0.349Z" fill="#5271FF" />

</svg>
  