<svg width="140" height="140" viewBox="0 0 140 140" fill="none" xmlns="http://www.w3.org/2000/svg">
<rect width="140" height="140" rx="70" fill="#D7E0FF"/>
<path fill-rule="evenodd" clip-rule="evenodd" d="M98.6173 43.1404C101.584 45.758 101.867 50.2846 99.2491 53.2511L63.433 93.8432C62.0498 95.4105 60.0509 96.2959 57.9606 96.2663C55.8702 96.2367 53.8971 95.2954 52.5587 93.6894L40.6199 79.3629C38.0873 76.3237 38.4979 71.8068 41.5371 69.2741C44.5763 66.7414 49.0932 67.1521 51.6259 70.1912L58.2171 78.1007L88.5066 43.7724C91.1241 40.8059 95.6508 40.523 98.6173 43.1404Z" fill="#FDFDFE"/>
<path fill-rule="evenodd" clip-rule="evenodd" d="M98.6173 43.1404C101.584 45.758 101.867 50.2846 99.2491 53.2511L63.433 93.8432C62.0498 95.4105 60.0509 96.2959 57.9606 96.2663C55.8702 96.2367 53.8971 95.2954 52.5587 93.6894L40.6199 79.3629C38.0873 76.3237 38.4979 71.8068 41.5371 69.2741C44.5763 66.7414 49.0932 67.1521 51.6259 70.1912L58.2171 78.1007L88.5066 43.7724C91.1241 40.8059 95.6508 40.523 98.6173 43.1404Z" fill="#FDFDFE" stroke="#1565FF" stroke-width="4.8" stroke-linecap="round" stroke-linejoin="round"/>
</svg>
