<svg width="24" height="24" viewBox="0 0 24 24" fill="none" xmlns="http://www.w3.org/2000/svg">
<path fill-rule="evenodd" clip-rule="evenodd" d="M4.95874 7.50624C4.95874 6.0993 6.0993 4.95874 7.50624 4.95874H20.9875C22.3945 4.95874 23.535 6.09931 23.535 7.50624V20.9875C23.535 22.3945 22.3945 23.535 20.9875 23.535H7.50624C6.09931 23.535 4.95874 22.3945 4.95874 20.9875V7.50624ZM7.50624 6.45874C6.92773 6.45874 6.45874 6.92773 6.45874 7.50624V20.9875C6.45874 21.566 6.92772 22.035 7.50624 22.035H20.9875C21.566 22.035 22.035 21.566 22.035 20.9875V7.50624C22.035 6.92772 21.566 6.45874 20.9875 6.45874H7.50624Z" fill="#1565FF"/>
<path fill-rule="evenodd" clip-rule="evenodd" d="M3.01253 1.965C2.43402 1.965 1.96503 2.43399 1.96503 3.0125V16.4937C1.96503 16.908 1.62924 17.2437 1.21503 17.2437C0.800813 17.2437 0.465027 16.908 0.465027 16.4937V3.0125C0.465027 1.60556 1.60559 0.464996 3.01253 0.464996H16.4938C16.908 0.464996 17.2438 0.800783 17.2438 1.215C17.2438 1.62921 16.908 1.965 16.4938 1.965H3.01253Z" fill="#1565FF"/>
</svg>
