<svg width="389" height="99" viewBox="0 0 389 99" fill="none" xmlns="http://www.w3.org/2000/svg">
<path d="M119.198 69.2734C118.667 69.8379 118.158 70.2529 117.671 70.5186C117.184 70.7731 116.559 70.9115 115.795 70.9336L108.855 71.1992L109.271 68.3438L115.347 68.2441C116.387 68.222 117.178 67.9287 117.721 67.3643C118.274 66.7998 118.529 65.9365 118.484 64.7744L118.302 59.1631C118.28 58.5986 118.208 58.1615 118.086 57.8516C117.964 57.5306 117.787 57.2926 117.555 57.1377C117.333 56.9717 117.062 56.8721 116.741 56.8389C116.42 56.8057 116.072 56.7891 115.695 56.7891H109.088L109.403 54.0664H116.542C117.427 54.0664 118.169 54.1715 118.767 54.3818C119.364 54.5811 119.824 54.985 120.145 55.5938C120.322 55.959 120.454 56.4017 120.543 56.9219C120.643 57.4421 120.703 58.0342 120.726 58.6982L120.792 64.8408V65.0234C120.77 65.8535 120.626 66.6283 120.36 67.3477C120.106 68.056 119.718 68.6979 119.198 69.2734Z" fill="#3B3B4D"/>
<path d="M104.726 64.4756C104.593 65.2171 104.405 65.8978 104.161 66.5176C103.929 67.1263 103.63 67.6465 103.265 68.0781C102.811 68.5983 102.285 69.041 101.688 69.4062C101.09 69.7715 100.459 70.0648 99.7949 70.2861C99.3633 70.4411 98.9095 70.596 98.4336 70.751C97.9577 70.8949 97.4707 71.0111 96.9727 71.0996V68.5596C97.4928 68.4378 98.0573 68.2995 98.666 68.1445C99.2858 67.9896 99.7451 67.8512 100.044 67.7295C100.808 67.4196 101.367 67.0212 101.721 66.5342C102.075 66.0472 102.307 65.4053 102.418 64.6084L103.613 57.0215H93.9512V49.2354L96.0264 49.0029L96.4414 54.3818H106.22V55.9424L104.726 64.4756Z" fill="#3B3B4D"/>
<path d="M82.9189 69.7715L80.9434 71.4814L72.2441 59.9434L71.1152 70.7344L67.3799 71.166L67.6455 69.0244L69.0068 68.626L70.501 58.2168L67.9277 55.1621L68.0273 54.0664H70.6836L77.2412 62.4668L78.5029 54.0664H81.8896L82.0391 56.3076L80.7109 56.6562L78.6357 64.1602L82.9189 69.7715Z" fill="#3B3B4D"/>
<path d="M62.7188 56.8555L63.1338 70.4854L60.5439 71.1328V56.7559H52.4922L52.791 54.0664H65.1094V56.4072L62.7188 56.8555Z" fill="#3B3B4D"/>
<path d="M36.0938 71.0664L36.3926 56.7227L34.7324 56.6895L35.0312 54.0664H47.5488C48.2018 54.0664 48.6722 54.238 48.96 54.5811C49.2477 54.9242 49.4027 55.4333 49.4248 56.1084L49.458 67.7295V71L36.0938 71.0664ZM47.2168 57.8018C47.2168 57.348 47.167 57.0658 47.0674 56.9551C46.9788 56.8444 46.6966 56.7891 46.2207 56.7891H38.5342V68.3438H47.2168V57.8018Z" fill="#3B3B4D"/>
<path d="M23.1025 70.834L10.4854 71.2656L10.8672 68.5098L19.7324 68.3438L19.5332 57.6357C19.5332 57.2484 19.4613 57.0049 19.3174 56.9053C19.1846 56.8057 18.9466 56.7559 18.6035 56.7559H10.8672L11.166 54.0664H20.5459C21.5641 54.0664 22.0732 54.5977 22.0732 55.6602L21.708 68.2109H23.4014L23.1025 70.834Z" fill="#3B3B4D"/>
<path d="M5.09375 71.166L5.16016 56.8223H2.57031L2.86914 54.0664H7.46777V57.6689L7.60059 70.3857L5.09375 71.166Z" fill="#3B3B4D"/>
<path d="M117.953 39.166L118.02 24.8223H115.43L115.729 22.0664H120.327V25.6689L120.46 38.3857L117.953 39.166Z" fill="#3B3B4D"/>
<path d="M111.416 24.8555L111.831 38.3525L109.308 39.0996V24.7559H101.04L101.223 38.4189L98.5996 39.1328L98.8984 24.7559L97.1719 24.6895L97.4707 22.0664H112.362L112.545 24.4072L111.416 24.8555Z" fill="#3B3B4D"/>
<path d="M91.6309 39.166L91.6973 24.8223H89.1074L89.4062 22.0664H94.0049V25.6689L94.1377 38.3857L91.6309 39.166Z" fill="#3B3B4D"/>
<path d="M83.5664 39.0996V25.9512C83.5664 25.4974 83.5111 25.1875 83.4004 25.0215C83.2897 24.8444 82.9854 24.7559 82.4873 24.7559H75.3486L75.6143 35.5303L75.4814 38.834L69.9033 39.2988L70.1689 36.4102L73.1738 36.3105V24.7891L71.3311 24.6895L71.6299 22.0664H83.8818C84.5348 22.0664 85.0052 22.2435 85.293 22.5977C85.5918 22.9518 85.7523 23.4665 85.7744 24.1416V28.624L86.0566 38.4189L83.5664 39.0996Z" fill="#3B3B4D"/>
<path d="M54.1191 39.0664L54.418 24.7227L52.7578 24.6895L53.0566 22.0664H65.5742C66.2272 22.0664 66.6976 22.238 66.9854 22.5811C67.2731 22.9242 67.4281 23.4333 67.4502 24.1084L67.4834 35.7295V39L54.1191 39.0664ZM65.2422 25.8018C65.2422 25.348 65.1924 25.0658 65.0928 24.9551C65.0042 24.8444 64.722 24.7891 64.2461 24.7891H56.5596V36.3438H65.2422V25.8018Z" fill="#3B3B4D"/>
<path d="M38.5215 24.9883H35.9648L36.2637 22.0664H40.7959V25.2373V30.7324L38.3721 31.5957L38.5215 24.9883Z" fill="#3B3B4D"/>
<path d="M31.1211 24.8555L31.5361 38.4854L28.9463 39.1328V24.7559H20.8945L21.1934 22.0664H33.5117V24.4072L31.1211 24.8555Z" fill="#3B3B4D"/>
<path d="M322.34 30.7793L319.02 31.9512L320.24 69.0605L309.205 72.0391V32.2441H288.404L289.137 69.2559L277.809 72.0391L278.492 32.1465L273.316 31.9512L274.732 21.3555H321.607L322.34 30.7793Z" fill="#3B3B4D"/>
<path d="M265.26 69.1582L254.273 72.2832L254.469 32.3418H246.656L247.975 21.3555H264.869V32.9766L265.26 69.1582ZM261.256 11.1016C261.256 12.2409 260.833 13.2337 259.986 14.0801C259.173 14.8939 258.196 15.3008 257.057 15.3008C255.95 15.3008 254.973 14.8939 254.127 14.0801C253.281 13.2337 252.857 12.2409 252.857 11.1016C252.857 10.0273 253.281 9.08333 254.127 8.26953C254.973 7.42318 255.95 7 257.057 7C258.326 7 259.335 7.39062 260.084 8.17188C260.865 8.92057 261.256 9.89714 261.256 11.1016Z" fill="#3B3B4D"/>
<path d="M238.502 69.2559L227.613 72.0391V34.8809C227.613 33.123 226.816 32.2441 225.221 32.2441H207.008L207.838 59.9785L207.301 70.6719L187.818 72.2832L188.941 60.7598L196.998 60.4668V32.2441L191.432 31.9512L192.799 21.3555H230.299C232.838 21.3555 234.693 22.0228 235.865 23.3574C237.037 24.6921 237.623 26.4987 237.623 28.7773V41.082L238.502 69.2559Z" fill="#3B3B4D"/>
<path d="M208.619 79.8516H227.32C228.167 79.8516 228.59 80.3398 228.59 81.3164V84.5391C228.59 85.5482 228.167 86.0527 227.32 86.0527H219.605C219.605 87.5827 219.898 89.015 220.484 90.3496L221.607 92.8398C221.868 93.3607 221.998 93.9303 221.998 94.5488C221.998 95.6882 221.591 96.6322 220.777 97.3809C219.996 98.1621 219.068 98.5527 217.994 98.5527C216.887 98.5527 215.943 98.1458 215.162 97.332C214.348 96.5508 213.941 95.623 213.941 94.5488C213.941 93.9303 214.072 93.3607 214.332 92.8398L215.406 90.3496C216.09 88.8848 216.432 87.4525 216.432 86.0527H208.619C207.74 86.0527 207.301 85.5482 207.301 84.5391V81.3164C207.301 80.3398 207.74 79.8516 208.619 79.8516Z" fill="#3B3B4D"/>
<path d="M180.885 71.1602L138.062 71.3555L138.941 32.0488L133.863 31.9512L135.279 21.3555H173.561C176.1 21.3555 177.939 22.0065 179.078 23.3086C180.217 24.6107 180.787 26.401 180.787 28.6797L180.885 60.4668V71.1602ZM170.777 60.4668V34.5391C170.777 33.0091 169.898 32.2441 168.141 32.2441H148.756V60.4668H170.777Z" fill="#3B3B4D"/>
<path d="M352.718 14.8714C362.187 13.1169 370.99 13.7092 378.885 16.6333C378.953 16.6558 379.028 16.6708 379.095 16.6708C379.342 16.6708 379.582 16.5209 379.672 16.2659C379.792 15.951 379.627 15.5911 379.312 15.4787C371.207 12.4721 362.187 11.8647 352.5 13.6567C352.163 13.7167 351.945 14.0391 352.005 14.3765C352.065 14.7139 352.388 14.9313 352.725 14.8714H352.718Z" fill="#3B3B4D"/>
<path d="M347.597 19.5431C347.679 19.5431 347.754 19.5281 347.829 19.4981C353.003 17.3687 366.739 13.3649 382.514 22.2348C382.611 22.2873 382.709 22.3173 382.814 22.3173C383.031 22.3173 383.241 22.2048 383.354 22.0024C383.519 21.71 383.414 21.3351 383.121 21.1626C376.148 17.2488 368.86 15.3368 361.438 15.4793C355.312 15.5993 350.423 17.1063 347.387 18.3509C347.154 18.4334 346.982 18.6658 346.982 18.9283C346.982 19.2657 347.259 19.5431 347.597 19.5431Z" fill="#3B3B4D"/>
<path d="M354.075 19.4155C353.745 19.4905 353.535 19.8204 353.61 20.1503C353.685 20.4802 354.015 20.6901 354.345 20.6151C361.955 18.9056 373.344 18.5607 384.373 26.5834C384.486 26.6659 384.606 26.7034 384.733 26.7034C384.921 26.7034 385.108 26.6134 385.228 26.4484C385.431 26.171 385.371 25.7886 385.093 25.5862C373.689 17.2936 361.925 17.646 354.067 19.408L354.075 19.4155Z" fill="#3B3B4D"/>
<path d="M344.313 24.0795C344.403 24.0795 344.493 24.057 344.583 24.0195C346.135 23.2623 348.647 22.1751 351.773 21.2753C352.103 21.1779 352.29 20.8405 352.193 20.5181C352.096 20.1957 351.758 20.0007 351.436 20.0982C348.227 21.0204 345.647 22.1451 344.05 22.9174C343.743 23.0673 343.616 23.4347 343.766 23.7421C343.87 23.9596 344.088 24.087 344.32 24.087L344.313 24.0795Z" fill="#3B3B4D"/>
<path d="M372.114 23.1116C372.017 23.434 372.197 23.7789 372.519 23.8839C377.265 25.3535 381.809 28.1576 386.023 32.2364C386.143 32.3489 386.293 32.4089 386.45 32.4089C386.608 32.4089 386.773 32.3489 386.893 32.2214C387.125 31.974 387.125 31.5916 386.878 31.3517C382.521 27.1379 377.813 24.2288 372.879 22.7067C372.557 22.6093 372.212 22.7892 372.107 23.1116H372.114Z" fill="#3B3B4D"/>
<path d="M341.133 31.5094C341.268 31.5094 341.403 31.4644 341.516 31.3745C345.317 28.3904 355.424 21.5824 367.233 22.797C367.571 22.8345 367.871 22.5871 367.908 22.2497C367.946 21.9123 367.698 21.6123 367.361 21.5749C355.102 20.3152 344.672 27.3332 340.759 30.4073C340.489 30.6172 340.444 31.0071 340.654 31.2695C340.774 31.427 340.954 31.5019 341.141 31.5019L341.133 31.5094Z" fill="#3B3B4D"/>
<path d="M372.902 55.3672C372.804 55.0448 372.467 54.8499 372.137 54.9474C371.807 55.0448 371.619 55.3822 371.717 55.7121C372.144 57.1817 372.452 58.8537 372.662 60.8331C373.029 64.2746 373.059 68.4209 372.737 72.4997C372.512 75.4163 371.634 78.7604 370.15 82.4193C370.022 82.7342 370.172 83.0941 370.487 83.2215C370.562 83.2515 370.645 83.2665 370.72 83.2665C370.96 83.2665 371.192 83.1241 371.29 82.8841C372.827 79.1053 373.726 75.6413 373.966 72.5972C374.289 68.4434 374.266 64.2221 373.891 60.7057C373.674 58.6588 373.351 56.9118 372.902 55.3747V55.3672Z" fill="#3B3B4D"/>
<path d="M354.93 66.3968V66.2993C354.93 66.2993 354.78 63.1353 353.94 59.8662C353.385 57.7069 353.453 55.54 354.142 53.6056C354.87 51.5737 356.212 49.9392 358.041 48.867C361.445 46.8726 365.711 47.4124 368.658 50.2166C369.513 51.0338 370.218 52.0235 370.802 53.2532C370.945 53.5606 371.312 53.6881 371.62 53.5456C371.927 53.4031 372.055 53.0357 371.912 52.7283C371.26 51.3637 370.473 50.2541 369.505 49.3318C366.154 46.1453 361.303 45.5379 357.419 47.8173C355.342 49.0394 353.805 50.8989 352.988 53.2082C352.215 55.3751 352.133 57.7893 352.748 60.1886C353.55 63.3002 353.7 66.3443 353.7 66.3743V66.4793C353.917 70.3032 353.13 73.6547 351.368 76.4439C350.521 77.7785 349.651 78.6482 349.201 79.0456C349.149 79.0906 349.111 79.1506 349.074 79.203C349.029 79.218 348.976 79.2405 348.931 79.2705L348.901 79.293C348.901 79.293 348.901 79.293 348.894 79.293H348.886C348.886 79.293 348.886 79.3005 348.886 79.308C348.864 79.323 348.841 79.3455 348.826 79.3605C348.826 79.3605 348.826 79.368 348.819 79.3755C348.804 79.3905 348.789 79.413 348.774 79.428C348.759 79.443 348.751 79.458 348.744 79.473C348.736 79.488 348.729 79.503 348.721 79.5105C348.706 79.5329 348.699 79.5629 348.684 79.5854C348.609 79.8029 348.654 80.0503 348.826 80.2227C348.946 80.3427 349.104 80.4027 349.261 80.4027C349.389 80.4027 349.524 80.3577 349.629 80.2752C349.629 80.2752 349.636 80.2752 349.644 80.2677C349.644 80.2677 349.651 80.2677 349.659 80.2602C349.734 80.2077 349.786 80.1403 349.831 80.0653C349.899 80.0428 349.966 79.9978 350.026 79.9453C350.521 79.503 351.481 78.5432 352.41 77.0887C354.315 74.0821 355.162 70.4831 354.937 66.4043L354.93 66.3968Z" fill="#3B3B4D"/>
<path d="M370.6 61.0507C370.105 56.3946 369.033 53.433 367.226 51.716C364.962 49.5566 361.693 49.1292 359.098 50.6513C356.264 52.3158 355.027 55.7273 355.957 59.3412C356.864 62.8727 357.007 66.1792 357.007 66.2242V66.2767C357.262 70.8054 356.302 74.8167 354.157 78.1907C353.34 79.4803 352.493 80.425 351.931 80.9949C351.691 81.2348 351.691 81.6247 351.931 81.8646C352.171 82.1045 352.56 82.1045 352.8 81.8646C353.685 80.9799 354.495 79.9677 355.2 78.8505C357.479 75.2516 358.506 70.9928 358.236 66.2092V66.1717C358.236 66.1717 358.086 62.7077 357.142 59.0413C356.354 55.9747 357.367 53.0956 359.713 51.716C361.828 50.4713 364.504 50.8312 366.371 52.6082C367.953 54.1078 368.906 56.837 369.37 61.1857C369.715 64.4322 369.738 68.3536 369.438 72.2449C369.123 76.2937 367.369 80.7249 365.959 83.7241C365.817 84.0315 365.944 84.3989 366.251 84.5413C366.334 84.5788 366.424 84.6013 366.514 84.6013C366.746 84.6013 366.964 84.4738 367.069 84.2489C368.523 81.1523 370.33 76.5787 370.66 72.3424C370.968 68.3836 370.945 64.3723 370.593 61.0582L370.6 61.0507Z" fill="#3B3B4D"/>
<path d="M364.939 54.1156C364.039 53.2608 362.892 52.9009 361.79 53.1258C360.695 53.3433 359.796 54.0931 359.323 55.1727C359.188 55.4802 359.323 55.8475 359.638 55.9825C359.946 56.1175 360.313 55.9825 360.448 55.6676C360.763 54.9553 361.34 54.4679 362.03 54.333C362.75 54.1905 363.477 54.4305 364.092 55.0078C366.154 56.9647 366.679 65.0323 366.139 71.9828C365.816 76.1216 363.762 80.8452 362.09 84.0767C361.933 84.3767 362.052 84.7515 362.352 84.9015C362.442 84.9465 362.54 84.969 362.637 84.969C362.862 84.969 363.072 84.849 363.185 84.6391C364.902 81.3026 367.024 76.414 367.368 72.0728C367.788 66.6594 367.758 56.7848 364.947 54.1081L364.939 54.1156Z" fill="#3B3B4D"/>
<path d="M361.543 66.0365C361.543 65.894 361.4 62.55 360.485 58.7486C360.403 58.4187 360.073 58.2163 359.743 58.2913C359.413 58.3738 359.211 58.7037 359.286 59.0336C360.171 62.715 360.313 66.0515 360.313 66.0965C360.763 74.2616 357.674 79.555 355.005 82.5616C354.78 82.8166 354.802 83.2064 355.057 83.4314C355.177 83.5364 355.319 83.5888 355.462 83.5888C355.634 83.5888 355.799 83.5214 355.919 83.3789C358.229 80.7772 362.037 75.0638 361.535 66.0365H361.543Z" fill="#3B3B4D"/>
<path d="M367.488 43.7684C367.166 43.6634 366.821 43.8359 366.709 44.1583C366.604 44.4807 366.776 44.8256 367.099 44.9381C371.162 46.2952 373.967 50.4414 375.421 57.2569C377.131 65.2496 375.818 74.0445 374.416 80.0127C374.341 80.3426 374.544 80.6726 374.874 80.755C374.919 80.7625 374.971 80.77 375.016 80.77C375.294 80.77 375.549 80.5826 375.616 80.2977C377.048 74.2094 378.375 65.2271 376.621 57.0095C375.069 49.7366 371.995 45.283 367.488 43.7759V43.7684Z" fill="#3B3B4D"/>
<path d="M351.796 63.12C350.064 56.5369 349.749 48.1169 358.116 45.4027C360.036 44.7804 361.828 44.443 363.432 44.413C363.77 44.413 364.04 44.1281 364.032 43.7832C364.032 43.4458 363.755 43.1759 363.402 43.1834C361.678 43.2208 359.766 43.5732 357.734 44.2331C350.499 46.5799 347.964 53.3954 350.604 63.4274C352.163 69.3582 348.467 74.8391 346.802 76.9234C346.592 77.1859 346.637 77.5757 346.9 77.7857C347.012 77.8757 347.147 77.9206 347.282 77.9206C347.462 77.9206 347.642 77.8382 347.762 77.6882C349.539 75.4614 353.49 69.5831 351.788 63.1125L351.796 63.12Z" fill="#3B3B4D"/>
<path d="M374.266 43.8133C369.947 39.7195 364.474 39.5395 360.643 40.1094C355.207 40.9191 350.993 43.176 348.459 46.64C345.97 50.0365 345.13 54.3927 345.962 59.6036C346.997 66.0592 345.497 70.6479 344.065 73.3546C343.908 73.6545 344.02 74.0294 344.32 74.1869C344.62 74.3443 344.995 74.2318 345.152 73.9319C346.674 71.0528 348.256 66.1942 347.177 59.4087C346.397 54.5351 347.162 50.4863 349.448 47.3672C351.78 44.1807 355.717 42.0888 360.823 41.3315C364.384 40.7992 369.46 40.9566 373.419 44.713C378.817 49.8265 380.827 60.0835 379.387 75.1766C379.357 75.514 379.605 75.8139 379.942 75.8439C379.965 75.8439 379.98 75.8439 380.002 75.8439C380.317 75.8439 380.579 75.6039 380.617 75.289C382.094 59.7911 379.957 49.2042 374.266 43.8133Z" fill="#3B3B4D"/>
<path d="M347.192 44.6751C347.394 44.4052 347.342 44.0153 347.064 43.8129C346.794 43.6105 346.404 43.6629 346.202 43.9404C341.763 49.8711 342.228 57.4739 342.626 60.4655C342.903 62.5274 342.431 65.0242 341.223 67.8883C341.089 68.2032 341.238 68.5631 341.553 68.6906C341.628 68.7206 341.711 68.7356 341.793 68.7356C342.033 68.7356 342.258 68.5931 342.363 68.3607C343.66 65.2941 344.155 62.5799 343.848 60.2931C343.465 57.4514 343.023 50.231 347.184 44.6676L347.192 44.6751Z" fill="#3B3B4D"/>
<path d="M364.287 36.2628C359.076 36.3903 354.705 37.4625 351.293 39.4494C351.001 39.6219 350.903 39.9967 351.068 40.2892C351.241 40.5816 351.616 40.679 351.908 40.5141C355.14 38.6321 359.316 37.6199 364.317 37.4925C380.924 37.0801 383.826 57.4666 384.298 66.2615C384.313 66.5914 384.583 66.8538 384.913 66.8538C385.243 66.8538 385.528 66.5764 385.528 66.239C385.528 66.2315 385.528 66.2165 385.528 66.209C385.033 57.0617 381.967 35.8355 364.287 36.2703V36.2628Z" fill="#3B3B4D"/>
<path d="M381.704 41.8938C381.502 41.6238 381.112 41.5639 380.842 41.7738C380.572 41.9762 380.512 42.3661 380.722 42.636C383.316 46.1 385.348 50.6737 386.758 56.2295C386.825 56.507 387.08 56.6944 387.35 56.6944C387.403 56.6944 387.448 56.6944 387.5 56.6719C387.83 56.5894 388.025 56.252 387.942 55.9221C386.495 50.2088 384.396 45.4927 381.704 41.8938Z" fill="#3B3B4D"/>
<path d="M360.103 34.516C366.589 33.6838 372.092 34.9509 376.463 38.2799C376.733 38.4824 377.115 38.4374 377.325 38.1675C377.528 37.8976 377.483 37.5152 377.213 37.3052C372.579 33.7738 366.769 32.4242 359.953 33.2939C352.883 34.2011 347.334 37.2452 343.465 42.3362C340.676 46.0102 338.809 50.6363 337.932 56.0947C337.932 56.1247 337.924 56.1622 337.924 56.1922H337.917C337.917 56.5296 338.194 56.807 338.532 56.807C338.839 56.807 339.094 56.5746 339.139 56.2821C340.579 47.3973 345.385 36.4055 360.103 34.516Z" fill="#3B3B4D"/>
<path d="M388.564 44.3606C384.238 37.6051 376.501 29.5674 364.167 29.5674C364.129 29.5674 364.099 29.5674 364.062 29.5674C363.724 29.5674 363.447 29.8449 363.447 30.1823C363.447 30.5197 363.724 30.7971 364.062 30.7971C375.886 30.7521 383.354 38.5048 387.522 45.0204C387.642 45.2003 387.837 45.3053 388.04 45.3053C388.152 45.3053 388.265 45.2753 388.37 45.2078C388.654 45.0279 388.737 44.6455 388.557 44.3606H388.564Z" fill="#3B3B4D"/>
<path d="M338.277 45.0351C338.494 45.0351 338.712 44.9152 338.817 44.7127C341.696 39.3143 347.844 32.5588 360.808 31.0068C361.145 30.9693 361.385 30.6619 361.348 30.3245C361.31 29.9871 361.003 29.7471 360.665 29.7846C347.177 31.3966 340.751 38.4746 337.737 44.1279C337.58 44.4278 337.692 44.8027 337.992 44.9602C338.082 45.0126 338.179 45.0351 338.284 45.0351H338.277Z" fill="#3B3B4D"/>
<path d="M340.069 36.6376C344.163 32.4314 351.488 27.2429 363.17 26.3956C374.049 25.6009 382.237 32.9487 387.178 39.2469C387.298 39.4043 387.478 39.4793 387.665 39.4793C387.8 39.4793 387.935 39.4343 388.047 39.3443C388.317 39.1344 388.362 38.7445 388.152 38.4821C383.024 31.944 374.506 24.3337 363.087 25.166C351.016 26.0432 343.436 31.4192 339.192 35.7829C338.952 36.0228 338.959 36.4127 339.207 36.6526C339.447 36.8925 339.837 36.885 340.077 36.6376H340.069Z" fill="#3B3B4D"/>
<path d="M359.63 11.3099C362.922 11.085 368.238 11.1899 374.836 12.9144C374.889 12.9294 374.941 12.9369 374.993 12.9369C375.331 12.9369 375.608 12.6595 375.608 12.3221C375.608 12.0297 375.406 11.7897 375.136 11.7223C368.388 9.96028 362.937 9.86281 359.556 10.0877C359.233 10.1027 358.971 10.3727 358.971 10.7026C358.971 11.055 359.278 11.3399 359.63 11.3174V11.3099Z" fill="#3B3B4D"/>
<path d="M364.069 66.5616C363.725 66.5616 363.455 66.8315 363.447 67.1689C363.395 72.6872 361.723 78.2431 358.469 83.6865C358.296 83.9789 358.386 84.3538 358.679 84.5263C358.776 84.5863 358.888 84.6162 358.993 84.6162C359.203 84.6162 359.406 84.5113 359.518 84.3163C362.885 78.6855 364.617 72.9197 364.669 67.1764C364.669 66.839 364.399 66.5616 364.062 66.5541L364.069 66.5616Z" fill="#3B3B4D"/>
<path d="M363.882 64.3719C363.882 64.3719 363.927 64.3719 363.957 64.3719C364.294 64.3344 364.534 64.027 364.497 63.6896C363.994 59.3709 362.66 56.8066 362.6 56.6942C362.442 56.3943 362.067 56.2818 361.767 56.4392C361.468 56.5967 361.355 56.9716 361.512 57.2715C361.527 57.294 362.802 59.7608 363.274 63.8321C363.312 64.147 363.574 64.3794 363.882 64.3794V64.3719Z" fill="#3B3B4D"/>
</svg>
