<svg width="16" height="17" viewBox="0 0 16 17" fill="none" xmlns="http://www.w3.org/2000/svg">
<g clip-path="url(#clip0_15474_1937)">
<path d="M6.28564 5.13274C6.28564 4.79369 6.38618 4.46225 6.57456 4.18034C6.76292 3.89842 7.03066 3.6787 7.3439 3.54895C7.65714 3.4192 8.00183 3.38526 8.33438 3.45139C8.66691 3.51754 8.97236 3.68081 9.21211 3.92056C9.45186 4.16031 9.61513 4.46576 9.68128 4.79831C9.74743 5.13084 9.71347 5.47553 9.58372 5.78878C9.45398 6.10202 9.23425 6.36975 8.95234 6.55812C8.67042 6.74649 8.33898 6.84703 7.99993 6.84703V7.41846" stroke="#1565FF" stroke-width="1.1" stroke-linecap="round" stroke-linejoin="round"/>
<path d="M8.00007 9.77553C7.84228 9.77553 7.71436 9.64761 7.71436 9.48982C7.71436 9.33202 7.84228 9.2041 8.00007 9.2041" stroke="#1565FF" stroke-width="1.1" stroke-linecap="round" stroke-linejoin="round"/>
<path d="M8 9.77553C8.15779 9.77553 8.28571 9.64761 8.28571 9.48982C8.28571 9.33202 8.15779 9.2041 8 9.2041" stroke="#1565FF" stroke-width="1.1" stroke-linecap="round" stroke-linejoin="round"/>
<path d="M1.71422 15.9284H12.5714C13.026 15.9284 13.4621 15.7479 13.7835 15.4264C14.105 15.1049 14.2856 14.6688 14.2856 14.2141C14.2856 13.7595 14.105 13.3234 13.7835 13.0019C13.4621 12.6804 13.026 12.4999 12.5714 12.4999H2.85707C2.55399 12.4999 2.26324 12.3794 2.04896 12.1651C1.83467 11.9508 1.71422 11.6601 1.71422 11.357V2.21415C1.71422 1.91104 1.83467 1.62035 2.04896 1.40602C2.26324 1.1917 2.55399 1.07129 2.85707 1.07129H12.5714C13.0182 1.07113 13.4475 1.24545 13.7677 1.55712C14.0879 1.8688 14.2737 2.29317 14.2856 2.73986V14.1684" stroke="#1565FF" stroke-width="1.1" stroke-linecap="round" stroke-linejoin="round"/>
<path d="M2.85693 12.5V15.9286" stroke="#1565FF" stroke-width="1.1" stroke-linecap="round" stroke-linejoin="round"/>
</g>
<defs>
<clipPath id="clip0_15474_1937">
<rect width="16" height="16" fill="white" transform="translate(0 0.5)"/>
</clipPath>
</defs>
</svg>
