<svg width="120" height="121" viewBox="0 0 120 121" fill="none" xmlns="http://www.w3.org/2000/svg">
<rect y="0.5" width="120" height="120" rx="60" fill="#D7E0FF"/>
<path d="M35.6442 80.3283L86.5395 68.5062L68.0598 36.5186L32.385 74.6768L35.6442 80.3283Z" fill="#F9FAFC"/>
<path d="M35.6445 80.327L86.5398 68.5049" stroke="#1565FF" stroke-width="4" stroke-linecap="round" stroke-linejoin="round"/>
<path d="M32.385 74.6768L68.0652 36.5186" stroke="#1565FF" stroke-width="4" stroke-linecap="round" stroke-linejoin="round"/>
<path d="M35.6442 80.3283L86.5395 68.5062L68.0598 36.5186L32.385 74.6768L35.6442 80.3283Z" stroke="#1565FF" stroke-width="4" stroke-linecap="round" stroke-linejoin="round"/>
<path d="M66.9734 34.627L87.6151 70.3823" stroke="#1565FF" stroke-width="4" stroke-linecap="round" stroke-linejoin="round"/>
<path d="M86.5339 68.5033L35.6387 80.3254L32.3901 74.6739L68.065 36.5156" stroke="#1565FF" stroke-width="4" stroke-linecap="round" stroke-linejoin="round"/>
<path d="M46.7122 77.7532L49.5165 82.6019C50.5328 84.3442 52.1995 85.6114 54.1501 86.1248C56.1007 86.6381 58.1753 86.3556 59.9176 85.3393C61.6599 84.3231 62.9271 82.6563 63.4405 80.7057C63.9539 78.7551 63.6713 76.6804 62.6551 74.9381L62.2055 74.1621" stroke="#1565FF" stroke-width="4" stroke-linecap="round" stroke-linejoin="round"/>
</svg>
